<svg width="145.41" height="100.001" viewBox="0 0 145.41 100.001" xmlns="http://www.w3.org/2000/svg"><g id="svgGroup" stroke-linecap="round" fill-rule="evenodd" font-size="9pt" stroke="#000" stroke-width="0.25mm" fill="#000" style="stroke:#000;stroke-width:0.25mm;fill:#000"><path d="M 145.41 46.583 L 145.41 63.672 A 21.767 21.767 0 0 1 142.068 73.812 A 29.646 29.646 0 0 1 139.063 77.833 A 44.094 44.094 0 0 1 131.721 84.406 Q 127.989 87.093 123.389 89.405 Q 113.574 94.336 100.488 97.168 A 124.689 124.689 0 0 1 80.464 99.801 A 146.548 146.548 0 0 1 72.754 100.001 A 138.218 138.218 0 0 1 54.071 98.781 A 117.412 117.412 0 0 1 44.922 97.168 A 112.093 112.093 0 0 1 32.699 93.827 A 83.092 83.092 0 0 1 22.021 89.405 Q 12.375 84.557 6.549 78.059 A 38.439 38.439 0 0 1 6.348 77.833 A 28.128 28.128 0 0 1 2.36 72.073 A 21.283 21.283 0 0 1 0 63.672 L 0 46.583 A 21.171 21.171 0 0 0 3.377 57.973 A 28.414 28.414 0 0 0 5.762 61.231 Q 11.26 67.867 20.715 72.846 A 69.816 69.816 0 0 0 21.289 73.145 Q 30.998 78.144 44.019 81.061 A 129.818 129.818 0 0 0 44.434 81.153 A 123.573 123.573 0 0 0 63.484 83.796 A 147.374 147.374 0 0 0 72.754 84.083 Q 87.793 84.083 100.977 81.153 A 111.978 111.978 0 0 0 113.041 77.811 A 82.266 82.266 0 0 0 124.121 73.145 A 60.69 60.69 0 0 0 131.966 68.365 Q 136.505 65.076 139.746 61.231 A 26.167 26.167 0 0 0 143.618 55.063 A 20.896 20.896 0 0 0 145.41 46.583 Z M 72.754 75.001 Q 87.793 75.001 100.977 72.071 A 109.941 109.941 0 0 0 113.222 68.655 A 81.016 81.016 0 0 0 124.121 64.014 A 61.486 61.486 0 0 0 131.966 59.201 Q 136.505 55.897 139.746 52.051 A 25.46 25.46 0 0 0 143.692 45.781 A 20.667 20.667 0 0 0 145.41 37.501 A 21.287 21.287 0 0 0 141.743 25.623 A 28.18 28.18 0 0 0 139.746 22.95 Q 133.984 16.114 124.121 10.987 Q 114.258 5.86 100.977 2.93 A 124.106 124.106 0 0 0 81.067 0.232 A 146.693 146.693 0 0 0 72.754 0.001 A 138.392 138.392 0 0 0 53.728 1.262 A 116.904 116.904 0 0 0 44.434 2.93 A 109.941 109.941 0 0 0 32.188 6.346 A 81.016 81.016 0 0 0 21.289 10.987 A 60.37 60.37 0 0 0 13.462 15.8 Q 8.948 19.105 5.762 22.95 A 25.513 25.513 0 0 0 1.823 29.051 A 20.383 20.383 0 0 0 0 37.501 A 20.988 20.988 0 0 0 3.623 49.215 A 28.073 28.073 0 0 0 5.762 52.051 A 42.12 42.12 0 0 0 12.903 58.786 Q 16.627 61.591 21.289 64.014 Q 31.152 69.141 44.434 72.071 A 123.573 123.573 0 0 0 63.484 74.714 A 147.374 147.374 0 0 0 72.754 75.001 Z M 53.418 34.083 L 56.641 12.891 L 72.754 12.891 Q 77.115 12.891 80.066 13.067 A 64.692 64.692 0 0 1 80.371 13.086 A 35.285 35.285 0 0 1 81.768 13.202 Q 83.686 13.403 84.566 13.768 A 3.362 3.362 0 0 1 84.57 13.77 A 17.244 17.244 0 0 1 87.279 14.387 A 13.744 13.744 0 0 1 89.258 15.186 Q 91.309 16.211 92.871 17.676 A 18.384 18.384 0 0 1 95.142 20.145 A 15.104 15.104 0 0 1 96.387 22.071 Q 97.656 24.415 98.34 27.344 A 13.278 13.278 0 0 1 98.583 29.229 Q 98.634 30.167 98.535 31.055 Q 98.34 32.813 97.168 34.083 A 5.337 5.337 0 0 1 95.752 36.915 A 8.39 8.39 0 0 1 94.446 38.013 Q 93.794 38.462 93.003 38.854 A 14.225 14.225 0 0 1 92.773 38.965 A 10.258 10.258 0 0 1 91.338 39.757 A 13.636 13.636 0 0 1 89.99 40.284 A 11.979 11.979 0 0 1 88.096 40.74 A 15.983 15.983 0 0 1 86.328 40.918 Q 84.564 41.36 81.604 41.562 A 58.59 58.59 0 0 1 80.957 41.602 A 165.507 165.507 0 0 1 78.201 41.735 Q 76.973 41.784 75.611 41.824 A 318.153 318.153 0 0 1 72.754 41.895 L 64.551 41.895 L 64.258 45.704 L 99.414 45.704 L 100.879 53.418 L 63.77 53.418 L 63.477 59.278 L 49.512 59.278 L 50.391 53.418 L 41.504 53.418 L 43.164 45.704 L 51.563 45.704 L 52.246 41.895 L 44.043 41.895 L 45.605 34.083 L 53.418 34.083 Z M 65.82 20.606 L 64.941 34.083 L 71.387 34.083 Q 74.968 34.083 77.339 33.926 A 43.746 43.746 0 0 0 77.881 33.887 A 20.922 20.922 0 0 0 79.185 33.746 Q 80.47 33.564 81.318 33.241 A 5.095 5.095 0 0 0 81.641 33.106 A 5.841 5.841 0 0 0 82.44 32.908 Q 83.392 32.605 84.668 31.934 A 2.592 2.592 0 0 0 85.886 30.514 Q 86.347 29.325 86.133 27.344 Q 85.742 23.731 83.203 22.364 Q 80.664 20.997 79.59 20.606 A 19.665 19.665 0 0 1 78.909 20.646 Q 77.82 20.691 76.318 20.655 A 146.585 146.585 0 0 0 74.714 20.625 Q 74.002 20.616 73.22 20.611 A 269.259 269.259 0 0 0 71.582 20.606 L 65.82 20.606 Z" vector-effect="non-scaling-stroke"/></g></svg>