<svg width="148.049" height="99.708" viewBox="0 0 148.049 99.708" xmlns="http://www.w3.org/2000/svg"><g id="svgGroup" stroke-linecap="round" fill-rule="evenodd" font-size="9pt" stroke="#000" stroke-width="0.25mm" fill="#000" style="stroke:#000;stroke-width:0.25mm;fill:#000"><path d="M 126.27 41.993 L 115.138 64.552 A 267.73 267.73 0 0 0 111.915 63.868 A 317.138 317.138 0 0 0 108.497 63.185 A 120.076 120.076 0 0 0 101.949 62.138 A 132.967 132.967 0 0 0 100.977 62.013 A 236.947 236.947 0 0 0 94.898 61.336 A 271.571 271.571 0 0 0 92.774 61.134 Q 88.477 60.841 83.985 60.646 L 77.735 28.615 A 14.583 14.583 0 0 0 85.401 23.488 A 13.919 13.919 0 0 0 88.477 14.552 A 13.845 13.845 0 0 0 84.333 4.449 A 16.88 16.88 0 0 0 84.132 4.249 A 14.354 14.354 0 0 0 73.743 0.001 A 17.473 17.473 0 0 0 73.731 0.001 A 14.68 14.68 0 0 0 67.084 1.496 A 14.795 14.795 0 0 0 63.282 4.249 A 13.93 13.93 0 0 0 58.986 14.352 A 16.936 16.936 0 0 0 58.985 14.552 Q 58.985 19.63 62.013 23.488 A 14.34 14.34 0 0 0 69.727 28.615 L 63.477 60.548 A 1542.737 1542.737 0 0 0 56.812 60.988 A 1349.256 1349.256 0 0 0 54.688 61.134 A 273.554 273.554 0 0 0 46.782 61.983 A 250.639 250.639 0 0 0 46.534 62.013 A 115.099 115.099 0 0 0 41.304 62.777 A 97.985 97.985 0 0 0 39.063 63.185 A 87.976 87.976 0 0 0 34.738 63.994 A 72.568 72.568 0 0 0 32.325 64.552 L 21.388 42.189 Q 25.001 40.333 27.247 36.867 A 13.806 13.806 0 0 0 29.493 29.201 A 14.009 14.009 0 0 0 25.29 18.992 A 17.222 17.222 0 0 0 25.147 18.849 A 14.264 14.264 0 0 0 14.841 14.552 A 17.024 17.024 0 0 0 14.747 14.552 A 14.484 14.484 0 0 0 7.859 16.189 A 14.888 14.888 0 0 0 4.298 18.849 A 14.094 14.094 0 0 0 0.002 29.012 A 16.946 16.946 0 0 0 0.001 29.201 A 13.831 13.831 0 0 0 3.565 38.624 Q 7.13 42.677 12.403 43.556 L 14.747 78.126 L 14.747 99.708 L 15.919 99.708 A 10.266 10.266 0 0 1 17.236 99.093 Q 19.37 98.251 23.243 97.462 A 95.304 95.304 0 0 1 27.535 96.698 Q 29.463 96.396 31.625 96.124 A 191.996 191.996 0 0 1 36.183 95.607 A 291.811 291.811 0 0 1 44.257 94.904 Q 48.596 94.583 53.419 94.337 A 467.985 467.985 0 0 1 65.839 94.002 A 555.289 555.289 0 0 1 73.731 93.947 A 522.602 522.602 0 0 1 89.071 94.164 A 452.407 452.407 0 0 1 94.044 94.337 A 402.767 402.767 0 0 1 102.857 94.879 Q 107.304 95.204 111.231 95.607 Q 118.849 96.388 124.122 97.462 A 62.41 62.41 0 0 1 126.557 98.005 Q 128.809 98.559 130.242 99.137 A 9.959 9.959 0 0 1 131.446 99.708 L 132.716 99.708 L 132.716 78.615 L 132.813 78.712 L 135.157 43.654 A 14.422 14.422 0 0 0 144.337 38.868 A 13.939 13.939 0 0 0 148.048 29.201 A 14.009 14.009 0 0 0 143.845 18.992 A 17.222 17.222 0 0 0 143.702 18.849 Q 139.356 14.552 133.302 14.552 A 14.484 14.484 0 0 0 126.414 16.189 A 14.888 14.888 0 0 0 122.852 18.849 A 14.094 14.094 0 0 0 118.557 29.012 A 16.946 16.946 0 0 0 118.556 29.201 A 14.09 14.09 0 0 0 120.655 36.72 A 14.336 14.336 0 0 0 126.27 41.993 Z" vector-effect="non-scaling-stroke"/></g></svg>