<svg width="62.5" height="58.301" viewBox="0 0 62.5 58.301" xmlns="http://www.w3.org/2000/svg"><g id="svgGroup" stroke-linecap="round" fill-rule="evenodd" font-size="9pt" stroke="#000" stroke-width="0.25mm" fill="#000" style="stroke:#000;stroke-width:0.25mm;fill:#000"><path d="M 35.743 41.7 L 36.133 41.7 L 34.717 45.996 A 9.106 9.106 0 0 0 34.245 48.861 Q 34.245 50.696 35.02 52.531 A 12.789 12.789 0 0 0 36.133 54.59 L 42.188 54.59 A 1.872 1.872 0 0 1 42.964 54.749 A 1.819 1.819 0 0 1 43.506 55.127 A 1.789 1.789 0 0 1 44.043 56.421 A 2.255 2.255 0 0 1 44.043 56.446 A 1.872 1.872 0 0 1 43.885 57.222 A 1.819 1.819 0 0 1 43.506 57.764 A 1.789 1.789 0 0 1 42.212 58.301 A 2.255 2.255 0 0 1 42.188 58.301 L 20.899 58.301 A 1.872 1.872 0 0 1 20.122 58.143 A 1.819 1.819 0 0 1 19.58 57.764 A 1.789 1.789 0 0 1 19.044 56.47 A 2.255 2.255 0 0 1 19.043 56.446 A 1.872 1.872 0 0 1 19.202 55.669 A 1.819 1.819 0 0 1 19.58 55.127 A 1.789 1.789 0 0 1 20.874 54.59 A 2.255 2.255 0 0 1 20.899 54.59 L 26.954 54.59 A 12.095 12.095 0 0 0 28.164 51.84 Q 28.568 50.459 28.568 49.065 A 9.948 9.948 0 0 0 28.321 46.875 A 154.748 154.748 0 0 0 28.008 45.514 Q 27.369 42.786 27.051 41.993 A 13.676 13.676 0 0 1 23.434 39.42 A 17.319 17.319 0 0 1 21.973 37.793 Q 19.727 34.961 18.067 31.543 A 246.326 246.326 0 0 0 15.281 28.997 A 275.773 275.773 0 0 0 15.235 28.955 A 208.773 208.773 0 0 0 12.305 26.368 A 105.806 105.806 0 0 1 5.894 20.434 A 91.572 91.572 0 0 1 3.809 18.262 Q 0 14.161 0 9.766 A 12.157 12.157 0 0 1 0.426 6.475 A 9.539 9.539 0 0 1 2.393 2.784 A 9.367 9.367 0 0 1 4.113 1.199 A 6.328 6.328 0 0 1 7.813 0 A 9.409 9.409 0 0 1 9.813 0.198 Q 10.996 0.455 11.855 1.05 A 4.642 4.642 0 0 1 13.282 2.637 A 54.117 54.117 0 0 1 13.904 3.787 Q 14.688 5.284 14.964 6.101 A 4.425 4.425 0 0 1 15.039 6.348 A 112.715 112.715 0 0 1 15.18 5.747 Q 15.318 5.161 15.431 4.719 A 33.205 33.205 0 0 1 15.528 4.346 L 15.723 3.614 L 19.141 2.735 A 18.829 18.829 0 0 1 21.155 2.35 Q 24.596 1.861 30.724 1.856 A 155.784 155.784 0 0 1 30.86 1.856 A 133.956 133.956 0 0 1 34.845 1.911 Q 38.462 2.019 40.873 2.34 A 21.309 21.309 0 0 1 43.067 2.735 L 46.68 3.614 L 46.875 4.346 Q 47.025 4.907 47.289 5.782 A 105.154 105.154 0 0 0 47.461 6.348 A 4.23 4.23 0 0 1 47.63 5.736 Q 48.011 4.635 49.122 2.637 A 4.819 4.819 0 0 1 52.125 0.315 Q 53.003 0.059 54.082 0.011 A 11.434 11.434 0 0 1 54.59 0 A 6.48 6.48 0 0 1 58.517 1.346 A 9.848 9.848 0 0 1 60.059 2.784 A 9.749 9.749 0 0 1 62.4 8.118 A 13.094 13.094 0 0 1 62.5 9.766 A 10.609 10.609 0 0 1 61.141 14.881 Q 60.21 16.596 58.643 18.262 Q 54.786 22.364 50.098 26.368 Q 48.633 27.637 47.217 28.955 A 2877.322 2877.322 0 0 1 44.434 31.543 Q 42.774 34.766 40.625 37.5 A 16.797 16.797 0 0 1 37.877 40.292 A 14.219 14.219 0 0 1 35.743 41.7 Z M 13.77 16.504 Q 13.77 15.235 13.868 13.916 A 296.906 296.906 0 0 1 13.965 12.635 A 249.124 249.124 0 0 1 14.063 11.426 A 8.516 8.516 0 0 0 12.957 9.481 A 10.529 10.529 0 0 0 12.256 8.643 A 3.989 3.989 0 0 0 9.353 7.327 A 5.101 5.101 0 0 0 9.18 7.325 Q 6.543 7.325 6.104 8.887 Q 5.69 10.359 5.839 11.485 A 4.175 4.175 0 0 0 5.86 11.621 A 3.472 3.472 0 0 0 5.857 11.75 Q 5.857 14.381 9.717 19.336 Q 13.672 24.414 16.114 27.149 A 43.957 43.957 0 0 1 14.929 23.541 A 35.444 35.444 0 0 1 14.356 21.192 A 36.496 36.496 0 0 1 14.022 19.36 Q 13.896 18.541 13.833 17.827 A 15.099 15.099 0 0 1 13.77 16.504 Z M 46.289 27.051 A 72.707 72.707 0 0 0 48.015 25.118 Q 50.064 22.745 52.784 19.287 A 36.039 36.039 0 0 0 54.343 17.16 Q 56.695 13.669 56.543 11.621 Q 56.735 10.474 56.364 8.952 A 10.833 10.833 0 0 0 56.348 8.887 A 1.769 1.769 0 0 0 55.297 7.679 Q 54.575 7.347 53.386 7.326 A 9.203 9.203 0 0 0 53.223 7.325 A 4.244 4.244 0 0 0 51.688 7.593 A 3.81 3.81 0 0 0 50.196 8.643 A 11.968 11.968 0 0 0 48.763 10.614 A 10.596 10.596 0 0 0 48.34 11.426 A 373.687 373.687 0 0 1 48.487 13.239 A 420.606 420.606 0 0 1 48.536 13.868 A 33.912 33.912 0 0 1 48.632 16.143 A 37.735 37.735 0 0 1 48.633 16.504 A 16.441 16.441 0 0 1 48.551 18.086 Q 48.413 19.501 48.047 21.241 Q 47.461 24.024 46.289 27.051 Z" vector-effect="non-scaling-stroke"/></g></svg>