<svg width="111.035" height="100" viewBox="0 0 111.035 100" xmlns="http://www.w3.org/2000/svg"><g id="svgGroup" stroke-linecap="round" fill-rule="evenodd" font-size="9pt" stroke="#000" stroke-width="0.25mm" fill="#000" style="stroke:#000;stroke-width:0.25mm;fill:#000"><path d="M 0 30.566 L 55.273 100 L 22.559 48.242 L 0 30.566 Z M 90.234 50 L 55.762 100 L 111.035 31.445 L 90.234 50 Z M 35.352 0 L 75.684 0 L 94.727 8.887 L 75.195 16.797 L 35.84 16.797 L 15.918 8.887 L 35.352 0 Z M 30.566 50 L 82.715 50 L 55.273 90.234 L 30.566 50 Z M 38.086 24.316 L 72.559 24.316 L 84.961 42.48 L 26.953 42.48 L 38.086 24.316 Z M 91.602 39.355 L 108.887 25.684 L 98.242 13.281 L 80.566 22.168 L 91.602 39.355 Z M 12.402 13.672 L 30.957 22.559 L 21.191 38.086 L 3.125 25.684 L 12.402 13.672 Z" vector-effect="non-scaling-stroke"/></g></svg>