<svg width="120.215" height="100" viewBox="0 0 120.215 100" xmlns="http://www.w3.org/2000/svg"><g id="svgGroup" stroke-linecap="round" fill-rule="evenodd" font-size="9pt" stroke="#000" stroke-width="0.25mm" fill="#000" style="stroke:#000;stroke-width:0.25mm;fill:#000"><path d="M 6.641 63.379 L 7.032 60.742 A 16.013 16.013 0 0 1 7.598 58.323 Q 7.971 57.128 8.544 55.833 A 30.084 30.084 0 0 1 8.985 54.883 A 18.496 18.496 0 0 1 12.343 50.119 A 21.967 21.967 0 0 1 13.477 49.024 A 10.165 10.165 0 0 1 17.526 46.91 Q 19.058 46.489 20.877 46.407 A 19.959 19.959 0 0 1 21.778 46.387 A 29.507 29.507 0 0 1 27.664 46.936 Q 31.104 47.637 33.725 49.234 A 15.061 15.061 0 0 1 37.207 52.149 A 26.127 26.127 0 0 1 39.94 55.81 Q 42.286 59.662 42.286 63.379 A 7.461 7.461 0 0 1 41.884 65.711 Q 41.555 66.71 40.957 67.786 A 18.415 18.415 0 0 1 39.844 69.532 Q 37.305 73.047 34.327 77.539 A 62.678 62.678 0 0 0 30.567 84.061 A 75.228 75.228 0 0 0 28.907 87.598 A 28.025 28.025 0 0 0 26.706 96.287 Q 26.536 98.094 26.563 100 L 41.114 100 L 73.291 100 L 105.469 100 L 120.215 100 L 119.532 93.946 Q 119.062 89.783 118.315 84.328 A 717.025 717.025 0 0 0 117.578 79.102 Q 116.309 70.313 114.551 60.352 A 205.96 205.96 0 0 0 112.671 51.001 A 150.557 150.557 0 0 0 110.547 42.676 A 81.355 81.355 0 0 0 104.546 27.723 A 89.609 89.609 0 0 0 104.297 27.246 A 51.383 51.383 0 0 0 94.092 13.575 A 47.708 47.708 0 0 0 83.263 5.824 A 57.506 57.506 0 0 0 78.809 3.711 A 47.528 47.528 0 0 0 68.897 0.928 Q 63.526 0 57.325 0 A 97.402 97.402 0 0 0 48.751 0.357 Q 42.029 0.952 36.719 2.539 Q 28.223 5.176 22.559 8.741 Q 17.611 11.854 14.452 15.229 A 27.454 27.454 0 0 0 13.575 16.211 A 122.826 122.826 0 0 0 11.652 18.468 Q 9.705 20.813 8.496 22.559 A 38.953 38.953 0 0 0 6.581 25.772 A 50.331 50.331 0 0 0 5.176 28.614 A 54.144 54.144 0 0 0 2.561 35.602 A 59.134 59.134 0 0 0 2.491 35.84 Q 1.368 39.649 0.684 43.555 A 48.152 48.152 0 0 0 0.081 48.642 A 40.434 40.434 0 0 0 0 51.172 A 23.93 23.93 0 0 0 0.208 54.45 Q 0.83 58.936 3.321 60.84 L 6.641 63.379 Z M 36.914 15.821 L 76.661 15.821 Q 77.948 15.821 78.476 16.292 A 1.05 1.05 0 0 1 78.76 16.7 Q 79.062 17.477 78.105 18.559 A 6.498 6.498 0 0 1 77.832 18.848 L 58.985 37.207 A 4.158 4.158 0 0 1 57.558 38.161 Q 56.872 38.43 56.087 38.43 A 4.665 4.665 0 0 1 55.957 38.428 A 4.112 4.112 0 0 1 54.165 37.987 A 4.1 4.1 0 0 1 53.028 37.11 L 35.547 18.946 A 5.241 5.241 0 0 1 35.163 18.482 Q 34.668 17.803 34.668 17.234 A 1.238 1.238 0 0 1 34.766 16.748 A 1.282 1.282 0 0 1 35.417 16.09 Q 35.907 15.85 36.715 15.824 A 6.221 6.221 0 0 1 36.914 15.821 Z" vector-effect="non-scaling-stroke"/></g></svg>