<svg width="100.001" height="100" viewBox="0 0 100.001 100" xmlns="http://www.w3.org/2000/svg"><g id="svgGroup" stroke-linecap="round" fill-rule="evenodd" font-size="9pt" stroke="#000" stroke-width="0.25mm" fill="#000" style="stroke:#000;stroke-width:0.25mm;fill:#000"><path d="M 43.087 4.242 A 59.062 59.062 0 0 0 50.001 0 A 61.208 61.208 0 0 0 55.142 3.279 A 48.061 48.061 0 0 0 62.598 6.738 Q 68.751 9.082 75.001 9.131 A 34.041 34.041 0 0 0 75.266 9.132 A 35.162 35.162 0 0 0 87.403 6.934 A 43.376 43.376 0 0 0 93.382 4.238 A 56.302 56.302 0 0 0 100.001 0 A 212.505 212.505 0 0 1 99.769 10 A 181.156 181.156 0 0 1 97.071 34.082 A 132.33 132.33 0 0 1 94.981 43.801 A 109.32 109.32 0 0 1 88.135 63.135 A 89.029 89.029 0 0 1 86.76 65.944 A 77.631 77.631 0 0 1 72.559 85.645 Q 63.086 95.117 50.001 100 Q 36.915 95.117 27.442 85.645 Q 17.969 76.27 11.866 63.33 A 101.956 101.956 0 0 1 7.597 52.752 A 123.354 123.354 0 0 1 2.93 34.375 A 172.276 172.276 0 0 1 1.354 23.832 A 202.51 202.51 0 0 1 0.001 0 A 57.916 57.916 0 0 0 5.339 3.521 A 44.469 44.469 0 0 0 12.598 6.934 A 35.162 35.162 0 0 0 24.735 9.132 A 34.041 34.041 0 0 0 25.001 9.131 A 31.046 31.046 0 0 0 25.013 9.131 A 35.393 35.393 0 0 0 37.403 6.738 A 46.569 46.569 0 0 0 43.087 4.242 Z M 66.211 67.48 L 50.001 58.789 L 33.79 67.48 L 36.915 49.414 L 23.731 36.23 L 41.895 33.789 L 50.001 17.48 L 58.106 33.789 L 76.27 36.23 L 63.086 49.414 L 66.211 67.48 Z" vector-effect="non-scaling-stroke"/></g></svg>