<svg width="85.994" height="100" viewBox="0 0 85.994 100" xmlns="http://www.w3.org/2000/svg"><g id="svgGroup" stroke-linecap="round" fill-rule="evenodd" font-size="9pt" stroke="#000" stroke-width="0.25mm" fill="#000" style="stroke:#000;stroke-width:0.25mm;fill:#000"><path d="M 85.149 75.198 A 241.883 241.883 0 0 0 85.994 73.34 Q 79.549 70.898 75.936 65.723 A 27.425 27.425 0 0 1 75.443 64.978 A 23.129 23.129 0 0 1 71.785 54.492 A 21.713 21.713 0 0 1 71.697 52.541 Q 71.697 51.11 71.888 49.69 A 23.332 23.332 0 0 1 73.982 42.773 A 19.145 19.145 0 0 1 77.907 37.286 A 23.687 23.687 0 0 1 83.064 33.496 A 33.362 33.362 0 0 0 82.196 32.474 A 28.775 28.775 0 0 0 74.08 26.025 A 25.592 25.592 0 0 0 71.854 24.979 A 20.942 20.942 0 0 0 63.826 23.34 A 34.812 34.812 0 0 0 60.129 23.524 Q 58.177 23.733 56.548 24.179 A 14.327 14.327 0 0 0 53.279 25.488 A 16.284 16.284 0 0 1 50.685 26.667 A 17.635 17.635 0 0 1 44.783 27.637 A 20.328 20.328 0 0 1 35.652 25.537 Q 31.404 23.438 25.545 23.438 A 20.468 20.468 0 0 0 19.808 24.268 A 25.113 25.113 0 0 0 14.119 26.758 A 27.187 27.187 0 0 0 10.433 29.352 A 30.218 30.218 0 0 0 4.549 36.035 Q 1.814 40.234 0.74 46.094 A 36.358 36.358 0 0 0 0.567 47.024 Q -0.003 50.315 0 53.863 A 47.402 47.402 0 0 0 0.252 58.643 Q 0.936 65.332 3.377 72.461 Q 5.916 79.492 10.311 86.23 A 53.956 53.956 0 0 0 10.706 86.839 A 58.291 58.291 0 0 0 17.732 95.508 A 17.957 17.957 0 0 0 19.244 96.891 A 13.168 13.168 0 0 0 27.498 100 A 20.96 20.96 0 0 0 29.27 99.928 Q 30.891 99.79 32.243 99.39 A 9.743 9.743 0 0 0 35.311 97.9 A 7.333 7.333 0 0 1 36.299 97.288 Q 39.19 95.785 44.783 95.703 A 36.84 36.84 0 0 1 46.731 95.752 Q 51.935 96.028 54.256 97.852 Q 56.114 99.312 59.011 99.78 A 18.6 18.6 0 0 0 61.971 100 A 12.351 12.351 0 0 0 68.482 97.999 A 17.439 17.439 0 0 0 71.883 95.117 A 77.763 77.763 0 0 0 74.594 92.042 A 64.874 64.874 0 0 0 79.451 85.449 A 82.7 82.7 0 0 0 80.868 83.317 Q 82.196 81.246 83.016 79.639 A 75.534 75.534 0 0 0 83.279 79.117 Q 84.102 77.472 85.149 75.198 Z M 56.99 16.211 A 24.877 24.877 0 0 0 59.758 11.726 A 31.099 31.099 0 0 0 60.994 8.789 A 17.648 17.648 0 0 0 62.081 2.716 A 18.033 18.033 0 0 0 61.873 0 A 18.419 18.419 0 0 0 57.276 0.963 A 24.932 24.932 0 0 0 53.572 2.588 A 25.097 25.097 0 0 0 49.233 5.494 A 20.847 20.847 0 0 0 46.541 8.203 A 25.338 25.338 0 0 0 43.794 12.445 A 31.958 31.958 0 0 0 42.439 15.43 Q 40.779 19.629 41.561 24.023 Q 45.396 24.109 49.082 22.409 A 20.263 20.263 0 0 0 50.154 21.875 A 22.254 22.254 0 0 0 54.793 18.61 A 19.39 19.39 0 0 0 56.99 16.211 Z" vector-effect="non-scaling-stroke"/></g></svg>