<svg width="100" height="100" viewBox="0 0 100 100" xmlns="http://www.w3.org/2000/svg"><g id="svgGroup" stroke-linecap="round" fill-rule="evenodd" font-size="9pt" stroke="#000" stroke-width="0.25mm" fill="#000" style="stroke:#000;stroke-width:0.25mm;fill:#000"><path d="M 80.371 6.543 L 100 0 L 93.457 19.531 L 41.895 71.191 L 28.809 58.105 L 80.371 6.543 Z M 15.723 90.82 L 33.399 73.145 L 26.856 66.602 L 9.18 84.277 L 4.59 79.688 L 1.368 82.91 A 4.572 4.572 0 0 0 0.226 84.723 A 4.633 4.633 0 0 0 0 86.182 A 4.457 4.457 0 0 0 1.325 89.41 A 5.515 5.515 0 0 0 1.368 89.453 L 10.45 98.633 Q 11.817 100 13.77 100 A 4.562 4.562 0 0 0 15.451 99.7 A 4.168 4.168 0 0 0 16.993 98.633 L 20.313 95.313 L 15.723 90.82 Z M 18.946 48.34 L 51.661 80.957 L 46.387 86.23 L 13.77 53.516 L 18.946 48.34 Z M 46.387 86.23 L 52.93 92.773 L 55.567 77.051 L 46.387 86.23 Z M 13.77 53.516 L 22.95 44.434 L 7.227 46.973 L 13.77 53.516 Z" vector-effect="non-scaling-stroke"/></g></svg>