<svg width="58.398" height="83.301" viewBox="0 0 58.398 83.301" xmlns="http://www.w3.org/2000/svg"><g id="svgGroup" stroke-linecap="round" fill-rule="evenodd" font-size="9pt" stroke="#000" stroke-width="0.25mm" fill="#000" style="stroke:#000;stroke-width:0.25mm;fill:#000"><path d="M 0 25 L 0 58.301 A 271.028 271.028 0 0 0 0.031 62.491 Q 0.101 67.012 0.332 70.197 A 65.084 65.084 0 0 0 0.488 72.022 A 15.863 15.863 0 0 0 1.202 75.461 A 11.009 11.009 0 0 0 3.711 79.688 A 10.254 10.254 0 0 0 7.7 82.12 Q 9.335 82.682 11.328 82.861 A 80.696 80.696 0 0 0 14.014 83.054 Q 17.035 83.224 21.095 83.277 A 299.235 299.235 0 0 0 25 83.301 L 33.398 83.301 Q 40.643 83.301 45.233 83.002 A 74.49 74.49 0 0 0 47.07 82.861 A 15.806 15.806 0 0 0 50.302 82.249 Q 52.421 81.597 53.97 80.336 A 9.514 9.514 0 0 0 54.688 79.688 Q 57.422 76.855 57.91 72.022 A 70.734 70.734 0 0 0 58.124 69.351 Q 58.313 66.336 58.372 62.244 A 274.142 274.142 0 0 0 58.398 58.301 L 58.398 25 Q 58.398 16.113 57.91 11.23 A 15.994 15.994 0 0 0 57.249 7.934 Q 56.418 5.344 54.688 3.613 A 10.254 10.254 0 0 0 50.699 1.181 Q 49.064 0.619 47.07 0.439 A 80.696 80.696 0 0 0 44.385 0.247 Q 41.364 0.077 37.304 0.024 A 299.235 299.235 0 0 0 33.398 0 L 25 0 Q 17.756 0 13.165 0.299 A 74.49 74.49 0 0 0 11.328 0.439 A 15.806 15.806 0 0 0 8.096 1.052 Q 5.977 1.703 4.429 2.965 A 9.514 9.514 0 0 0 3.711 3.613 A 10.406 10.406 0 0 0 1.278 7.555 Q 0.69 9.209 0.488 11.23 A 72.441 72.441 0 0 0 0.275 13.922 Q 0.086 16.956 0.027 21.054 A 274.707 274.707 0 0 0 0 25 Z M 48.828 9.473 L 48.828 9.57 L 49.121 10.059 A 1.535 1.535 0 0 1 49.249 10.35 Q 49.423 10.863 49.557 11.942 A 25.061 25.061 0 0 1 49.609 12.402 Q 49.806 13.715 49.893 15.512 A 58.593 58.593 0 0 1 49.951 17.383 A 298.495 298.495 0 0 1 49.973 18.994 Q 49.998 21.387 50 24.547 A 840.561 840.561 0 0 1 50 25 L 50 58.301 A 753.846 753.846 0 0 1 49.997 60.495 Q 49.988 63.635 49.951 65.869 Q 49.914 68.121 49.738 69.842 A 26.808 26.808 0 0 1 49.609 70.898 Q 49.434 72.473 49.181 73.068 A 1.44 1.44 0 0 1 49.121 73.193 L 48.828 73.73 A 0.476 0.476 0 0 1 48.77 73.778 Q 48.662 73.855 48.417 73.983 A 10.828 10.828 0 0 1 48.242 74.072 A 2.132 2.132 0 0 1 47.968 74.181 Q 47.369 74.381 45.996 74.609 A 29.003 29.003 0 0 1 44.328 74.795 Q 42.828 74.921 40.967 74.951 A 286.758 286.758 0 0 1 39.377 74.973 Q 37.009 74.998 33.852 75 A 839.887 839.887 0 0 1 33.398 75 L 25 75 A 753.846 753.846 0 0 1 22.806 74.997 Q 19.666 74.988 17.432 74.951 Q 15.18 74.914 13.459 74.738 A 26.808 26.808 0 0 1 12.402 74.609 A 31.025 31.025 0 0 1 11.694 74.484 Q 10.733 74.3 10.307 74.137 A 1.685 1.685 0 0 1 10.156 74.072 A 10.919 10.919 0 0 1 9.987 73.986 Q 9.733 73.853 9.625 73.775 A 0.459 0.459 0 0 1 9.57 73.73 L 9.277 73.193 Q 9.015 72.712 8.831 71.251 A 24.216 24.216 0 0 1 8.789 70.898 A 29.003 29.003 0 0 1 8.604 69.23 Q 8.478 67.731 8.447 65.869 A 286.758 286.758 0 0 1 8.426 64.279 Q 8.4 61.912 8.399 58.754 A 839.887 839.887 0 0 1 8.398 58.301 L 8.398 25 Q 8.398 20.41 8.447 17.383 Q 8.48 15.349 8.623 13.8 A 24.879 24.879 0 0 1 8.789 12.402 Q 8.984 10.547 9.277 10.059 L 9.57 9.57 L 9.57 9.473 A 0.183 0.183 0 0 0 9.623 9.462 Q 9.738 9.424 10.023 9.258 A 10.655 10.655 0 0 0 10.156 9.18 A 1.6 1.6 0 0 1 10.455 9.048 Q 10.955 8.876 11.97 8.743 A 22.914 22.914 0 0 1 12.402 8.691 A 85.067 85.067 0 0 1 13.33 8.594 A 114.527 114.527 0 0 1 14.355 8.496 A 23.351 23.351 0 0 1 15.626 8.417 A 29.793 29.793 0 0 1 16.699 8.398 A 7.817 7.817 0 0 0 19.028 14.096 A 9.474 9.474 0 0 0 19.141 14.209 A 8.072 8.072 0 0 0 24.987 16.602 A 9.68 9.68 0 0 0 25 16.602 L 33.398 16.602 A 8.072 8.072 0 0 0 39.248 14.218 A 9.799 9.799 0 0 0 39.258 14.209 A 7.817 7.817 0 0 0 41.698 8.558 A 9.47 9.47 0 0 0 41.699 8.398 Q 42.969 8.398 44.043 8.496 A 114.527 114.527 0 0 1 45.068 8.594 A 85.067 85.067 0 0 1 45.996 8.691 Q 47.539 8.863 48.104 9.11 A 1.215 1.215 0 0 1 48.242 9.18 A 10.034 10.034 0 0 0 48.412 9.279 Q 48.729 9.461 48.818 9.472 A 0.086 0.086 0 0 0 48.828 9.473 Z M 21.714 58.794 A 8.342 8.342 0 0 0 20.898 62.5 A 9.508 9.508 0 0 0 20.899 62.607 A 7.983 7.983 0 0 0 23.34 68.359 A 9.797 9.797 0 0 0 23.416 68.435 A 7.979 7.979 0 0 0 29.199 70.801 A 9.508 9.508 0 0 0 29.306 70.8 A 7.983 7.983 0 0 0 35.059 68.359 A 9.797 9.797 0 0 0 35.134 68.283 A 7.979 7.979 0 0 0 37.5 62.5 A 10.054 10.054 0 0 0 37.499 62.39 A 8.092 8.092 0 0 0 35.059 56.543 A 9.797 9.797 0 0 0 34.982 56.467 A 7.979 7.979 0 0 0 29.199 54.102 A 9.508 9.508 0 0 0 29.093 54.102 A 7.983 7.983 0 0 0 23.34 56.543 A 8.359 8.359 0 0 0 21.714 58.794 Z" vector-effect="non-scaling-stroke"/></g></svg>