<svg width="89.537" height="85.557" viewBox="0 0 89.537 85.557" xmlns="http://www.w3.org/2000/svg"><g id="svgGroup" stroke-linecap="round" fill-rule="evenodd" font-size="9pt" stroke="#000" stroke-width="0.25mm" fill="#000" style="stroke:#000;stroke-width:0.25mm;fill:#000"><path d="M 49.847 3.223 L 60.003 21.485 Q 60.686 22.559 61.712 23.34 A 4.979 4.979 0 0 0 64.007 24.317 L 84.515 28.418 A 5.61 5.61 0 0 1 87.444 29.639 A 5.28 5.28 0 0 1 89.202 32.227 Q 89.788 33.789 89.348 35.401 A 5.248 5.248 0 0 1 87.64 38.086 L 73.479 53.418 A 5.977 5.977 0 0 0 72.21 55.615 A 5.381 5.381 0 0 0 71.949 57.265 A 5.523 5.523 0 0 0 72.015 58.106 L 74.456 78.809 Q 74.749 80.469 74.163 81.983 Q 73.577 83.496 72.21 84.473 Q 70.94 85.449 69.28 85.547 A 5.604 5.604 0 0 1 68.951 85.557 A 4.89 4.89 0 0 1 66.253 84.766 L 47.21 76.172 A 5.393 5.393 0 0 0 44.768 75.586 A 5.393 5.393 0 0 0 42.327 76.172 L 23.284 84.766 A 4.89 4.89 0 0 1 20.586 85.557 A 5.604 5.604 0 0 1 20.257 85.547 A 5.193 5.193 0 0 1 17.327 84.473 Q 15.96 83.496 15.374 81.983 A 5.723 5.723 0 0 1 14.983 79.899 A 6.267 6.267 0 0 1 15.081 78.809 L 17.522 58.106 A 5.523 5.523 0 0 0 17.587 57.265 A 5.381 5.381 0 0 0 17.327 55.615 A 5.977 5.977 0 0 0 16.057 53.418 L 1.897 38.086 A 5.248 5.248 0 0 1 0.188 35.401 Q -0.251 33.789 0.335 32.227 Q 0.823 30.664 2.093 29.639 A 5.61 5.61 0 0 1 5.022 28.418 L 25.53 24.317 A 4.979 4.979 0 0 0 27.825 23.34 A 5.841 5.841 0 0 0 29.395 21.56 A 5.681 5.681 0 0 0 29.436 21.485 L 39.69 3.223 Q 40.374 1.758 41.741 0.879 Q 43.108 0 44.768 0 Q 46.429 0 47.796 0.879 Q 49.163 1.758 49.847 3.223 Z" vector-effect="non-scaling-stroke"/></g></svg>