<svg width="73.145" height="100" viewBox="0 0 73.145 100" xmlns="http://www.w3.org/2000/svg"><g id="svgGroup" stroke-linecap="round" fill-rule="evenodd" font-size="9pt" stroke="#000" stroke-width="0.25mm" fill="#000" style="stroke:#000;stroke-width:0.25mm;fill:#000"><path d="M 40.821 2.344 L 40.821 2.441 L 49.122 17.383 A 4.292 4.292 0 0 0 49.943 18.53 A 3.944 3.944 0 0 0 50.44 18.945 A 5.847 5.847 0 0 0 51.934 19.699 A 6.865 6.865 0 0 0 52.344 19.824 L 69.141 23.145 Q 70.899 23.438 72.022 24.805 A 4.786 4.786 0 0 1 73.145 27.93 A 4.896 4.896 0 0 1 72.983 29.203 A 4.378 4.378 0 0 1 72.803 29.736 A 5.571 5.571 0 0 1 71.875 31.25 L 60.254 43.75 A 3.942 3.942 0 0 0 59.551 44.719 A 4.903 4.903 0 0 0 59.327 45.215 A 4.931 4.931 0 0 0 59.001 46.586 A 4.534 4.534 0 0 0 58.985 46.973 L 58.985 47.314 L 58.985 47.559 L 60.938 64.648 A 0.416 0.416 0 0 0 60.967 64.798 A 0.51 0.51 0 0 0 60.987 64.844 A 0.47 0.47 0 0 1 61.026 64.954 A 0.399 0.399 0 0 1 61.036 65.039 A 4.891 4.891 0 0 1 60.594 67.132 A 4.817 4.817 0 0 1 59.62 68.506 A 4.706 4.706 0 0 1 56.217 69.922 A 5.899 5.899 0 0 1 56.153 69.922 A 3.383 3.383 0 0 1 55.176 69.775 Q 54.688 69.629 54.2 69.434 L 38.575 62.5 A 4.163 4.163 0 0 0 38.176 62.328 Q 37.965 62.248 37.722 62.179 A 7.061 7.061 0 0 0 37.647 62.158 A 4.23 4.23 0 0 0 37.026 62.036 A 3.479 3.479 0 0 0 36.622 62.012 Q 36.036 62.012 35.547 62.158 Q 35.059 62.305 34.571 62.5 L 18.946 69.629 A 5.002 5.002 0 0 1 18.447 69.844 A 6.315 6.315 0 0 1 18.067 69.971 A 3.462 3.462 0 0 1 17.393 70.099 A 4.302 4.302 0 0 1 16.993 70.117 A 4.593 4.593 0 0 1 13.668 68.745 A 5.766 5.766 0 0 1 13.624 68.701 A 4.706 4.706 0 0 1 12.208 65.298 A 5.899 5.899 0 0 1 12.207 65.234 L 12.207 65.039 L 12.207 64.746 L 14.258 47.461 L 14.258 47.217 L 14.258 46.973 A 4.896 4.896 0 0 0 14.097 45.699 A 4.378 4.378 0 0 0 13.916 45.166 Q 13.575 44.336 12.989 43.75 L 1.368 31.25 Q 0.684 30.566 0.342 29.688 A 5.074 5.074 0 0 1 0 27.832 A 4.598 4.598 0 0 1 1.124 24.756 A 4.616 4.616 0 0 1 3.907 23.145 L 20.704 19.727 Q 21.778 19.531 22.657 18.945 Q 23.536 18.359 24.122 17.48 L 32.422 2.441 A 4.167 4.167 0 0 1 34.131 0.635 A 4.953 4.953 0 0 1 36.531 0.001 A 5.839 5.839 0 0 1 36.622 0 A 4.787 4.787 0 0 1 39.014 0.635 A 5.055 5.055 0 0 1 40.821 2.344 Z M 13.477 79.102 L 35.157 68.164 Q 35.45 67.969 35.791 67.92 A 4.837 4.837 0 0 1 36.238 67.878 A 5.826 5.826 0 0 1 36.524 67.871 A 6.293 6.293 0 0 1 37.305 67.92 A 1.696 1.696 0 0 1 37.714 68.021 A 1.438 1.438 0 0 1 37.989 68.164 L 59.571 79.102 Q 60.45 79.492 60.987 80.273 Q 61.524 81.055 61.524 82.031 A 2.997 2.997 0 0 1 60.625 84.199 A 3.811 3.811 0 0 1 60.596 84.229 A 3.157 3.157 0 0 1 59.515 84.952 A 3.028 3.028 0 0 1 58.399 85.156 Q 57.911 85.156 57.52 85.01 A 8.132 8.132 0 0 1 56.739 84.668 L 36.622 74.512 L 16.309 84.668 Q 16.016 84.863 15.674 84.961 Q 15.332 85.059 14.942 85.059 L 14.893 85.059 L 14.844 85.059 A 2.997 2.997 0 0 1 12.676 84.16 A 3.811 3.811 0 0 1 12.647 84.131 A 3.157 3.157 0 0 1 11.923 83.049 A 3.028 3.028 0 0 1 11.719 81.934 A 3.299 3.299 0 0 1 11.853 80.978 A 2.813 2.813 0 0 1 12.207 80.225 A 3.248 3.248 0 0 1 13.477 79.102 Z M 14.161 92.578 L 14.258 92.578 L 35.254 81.25 Q 35.547 81.055 35.889 80.957 Q 36.231 80.859 36.622 80.859 A 2.034 2.034 0 0 1 36.957 80.889 A 2.73 2.73 0 0 1 37.256 80.957 A 2.253 2.253 0 0 1 37.891 81.25 L 58.985 92.48 A 3.963 3.963 0 0 1 60.259 93.617 A 4.776 4.776 0 0 1 60.45 93.896 A 3.817 3.817 0 0 1 61.033 95.851 A 4.599 4.599 0 0 1 61.036 95.996 A 3.854 3.854 0 0 1 59.9 98.791 A 4.649 4.649 0 0 1 59.864 98.828 A 3.854 3.854 0 0 1 57.083 100 A 4.673 4.673 0 0 1 57.032 100 L 16.211 100 A 3.951 3.951 0 0 1 13.526 98.73 A 3.828 3.828 0 0 1 12.403 95.996 A 4.087 4.087 0 0 1 12.634 94.611 A 3.801 3.801 0 0 1 12.891 94.043 A 4.597 4.597 0 0 1 14.161 92.578 Z" vector-effect="non-scaling-stroke"/></g></svg>