<svg width="100.001" height="99.903" viewBox="0 0 100.001 99.903" xmlns="http://www.w3.org/2000/svg"><g id="svgGroup" stroke-linecap="round" fill-rule="evenodd" font-size="9pt" stroke="#000" stroke-width="0.25mm" fill="#000" style="stroke:#000;stroke-width:0.25mm;fill:#000"><path d="M 67.286 74.024 L 67.286 73.828 Q 67.286 73.34 67.383 72.803 A 5.312 5.312 0 0 1 67.676 71.777 A 66.809 66.809 0 0 1 67.957 71.314 A 48.657 48.657 0 0 1 68.214 70.899 A 48.657 48.657 0 0 0 68.47 70.483 A 66.809 66.809 0 0 0 68.751 70.02 A 77.906 77.906 0 0 1 73.047 64.258 Q 75.294 61.524 77.735 58.984 A 2.437 2.437 0 0 1 78.015 58.742 Q 78.368 58.482 78.704 58.482 A 0.862 0.862 0 0 1 78.858 58.496 Q 79.31 58.578 79.52 59.144 A 2.194 2.194 0 0 1 79.59 59.375 Q 80.372 61.621 80.909 63.965 A 79.467 79.467 0 0 1 81.837 68.652 L 85.743 68.066 L 86.133 67.09 Q 84.571 65.43 83.35 63.428 A 23.164 23.164 0 0 1 81.348 59.277 Q 81.251 58.987 81.203 58.744 A 3.023 3.023 0 0 1 81.202 58.74 A 2.775 2.775 0 0 1 81.168 58.536 Q 81.155 58.43 81.153 58.336 A 1.615 1.615 0 0 1 81.153 58.301 A 1.327 1.327 0 0 1 81.162 58.139 Q 81.173 58.054 81.195 57.98 A 0.789 0.789 0 0 1 81.202 57.959 A 0.907 0.907 0 0 0 81.238 57.8 Q 81.249 57.726 81.25 57.642 A 1.526 1.526 0 0 0 81.251 57.617 L 81.251 57.275 L 81.251 56.934 L 81.251 56.641 L 81.251 56.25 A 104.629 104.629 0 0 1 82.596 52.579 A 92.461 92.461 0 0 1 83.057 51.416 A 61.321 61.321 0 0 1 85.059 46.973 Q 85.152 46.695 85.463 46.724 A 0.734 0.734 0 0 1 85.499 46.729 A 0.59 0.59 0 0 1 85.728 46.818 Q 85.909 46.932 86.102 47.183 A 3.246 3.246 0 0 1 86.231 47.363 Q 86.915 48.438 87.647 49.561 A 23.161 23.161 0 0 1 88.965 51.856 L 88.965 47.852 A 17.259 17.259 0 0 1 86.817 45.947 A 16.254 16.254 0 0 1 85.059 43.75 A 5.058 5.058 0 0 1 84.962 43.543 A 6.682 6.682 0 0 1 84.864 43.311 A 6.682 6.682 0 0 0 84.766 43.079 A 5.058 5.058 0 0 0 84.669 42.871 L 84.669 42.627 L 84.669 42.383 L 84.669 42.139 L 84.669 41.895 A 21.827 21.827 0 0 0 84.65 41.002 A 26.714 26.714 0 0 0 84.62 40.43 A 25.043 25.043 0 0 1 84.571 38.867 A 29.189 29.189 0 0 1 84.617 37.21 A 26.897 26.897 0 0 1 84.62 37.158 A 27.778 27.778 0 0 0 84.668 35.743 A 25.299 25.299 0 0 0 84.669 35.547 A 0.538 0.538 0 0 1 84.688 35.398 A 0.358 0.358 0 0 1 84.913 35.156 A 0.35 0.35 0 0 1 85.044 35.132 Q 85.234 35.132 85.491 35.311 A 1.959 1.959 0 0 1 85.547 35.352 Q 86.426 35.938 87.305 36.719 A 39.284 39.284 0 0 1 88.769 38.086 A 35.779 35.779 0 0 1 88.965 38.281 Q 90.04 37.109 91.212 36.035 Q 92.383 34.961 93.653 33.984 A 1.703 1.703 0 0 1 93.803 33.883 Q 94.002 33.765 94.156 33.765 A 0.35 0.35 0 0 1 94.288 33.789 A 2.997 2.997 0 0 0 94.394 33.83 Q 94.543 33.883 94.618 33.887 A 0.221 0.221 0 0 0 94.63 33.887 A 157.271 157.271 0 0 1 94.727 34.79 A 183.862 183.862 0 0 1 94.825 35.742 Q 94.922 36.719 94.922 37.695 A 21.338 21.338 0 0 1 94.868 39.252 A 18.637 18.637 0 0 1 94.825 39.746 L 94.63 41.699 A 7.152 7.152 0 0 1 94.52 42.004 A 9.45 9.45 0 0 1 94.385 42.334 A 1.944 1.944 0 0 1 94.083 42.819 A 2.341 2.341 0 0 1 93.946 42.969 A 14.904 14.904 0 0 1 93.156 43.701 A 17.948 17.948 0 0 1 92.628 44.141 A 8.705 8.705 0 0 1 91.405 44.964 A 7.88 7.88 0 0 1 91.114 45.117 Q 91.114 45.703 90.87 46.24 A 7.713 7.713 0 0 0 90.624 46.852 A 10.205 10.205 0 0 0 90.43 47.461 L 90.43 52.344 A 79.19 79.19 0 0 1 92.963 51.135 A 92.824 92.824 0 0 1 94.19 50.586 Q 96.192 49.707 98.34 49.024 Q 99.219 48.926 99.561 49.024 Q 99.903 49.121 99.805 49.707 A 35.713 35.713 0 0 1 98.518 55.083 A 32.84 32.84 0 0 1 98.389 55.469 Q 97.462 58.203 96.094 60.645 A 2.565 2.565 0 0 1 95.85 61.035 Q 95.704 61.231 95.508 61.426 A 9.936 9.936 0 0 1 94.982 61.914 A 11.965 11.965 0 0 1 94.63 62.207 A 42.345 42.345 0 0 1 92.267 63.107 A 46.185 46.185 0 0 1 92.188 63.135 Q 90.919 63.574 89.454 63.867 L 88.477 65.234 A 70.015 70.015 0 0 1 87.964 65.942 A 87.733 87.733 0 0 1 87.403 66.699 L 87.403 67.285 A 294.794 294.794 0 0 1 89.429 67.09 A 362.819 362.819 0 0 1 91.602 66.895 A 52.971 52.971 0 0 1 96.192 66.699 A 2.748 2.748 0 0 1 96.621 66.73 Q 96.841 66.765 97.013 66.839 A 0.991 0.991 0 0 1 97.413 67.139 Q 97.755 67.578 97.364 68.262 A 49.597 49.597 0 0 1 93.383 75.175 A 45.488 45.488 0 0 1 92.921 75.83 A 51.577 51.577 0 0 1 87.501 82.227 A 5.543 5.543 0 0 1 86.182 83.203 Q 85.45 83.594 84.669 83.887 Q 83.692 83.984 82.764 84.033 A 36.242 36.242 0 0 1 80.86 84.082 A 42.605 42.605 0 0 1 79.304 84.055 A 36.964 36.964 0 0 1 78.809 84.033 A 11.405 11.405 0 0 1 77.343 83.868 A 10.112 10.112 0 0 1 76.954 83.789 Q 75.977 84.766 74.854 85.645 A 140.722 140.722 0 0 1 72.559 87.402 Q 72.297 87.402 71.946 87.491 A 5.044 5.044 0 0 0 71.583 87.598 Q 70.997 87.793 70.801 87.5 Q 69.337 84.473 68.458 81.055 Q 67.579 77.637 67.286 74.024 Z M 33.008 73.535 L 33.008 73.438 A 6.373 6.373 0 0 0 32.939 72.484 A 5.763 5.763 0 0 0 32.911 72.315 A 5.312 5.312 0 0 0 32.618 71.289 Q 32.325 70.899 31.983 70.459 A 8.899 8.899 0 0 0 31.251 69.629 A 86.111 86.111 0 0 0 27.72 64.634 A 77.3 77.3 0 0 0 27.051 63.77 A 57.907 57.907 0 0 0 22.462 58.594 Q 22.043 58.092 21.589 58.092 A 0.851 0.851 0 0 0 21.436 58.106 A 0.861 0.861 0 0 0 20.95 58.385 Q 20.834 58.511 20.737 58.692 A 2.416 2.416 0 0 0 20.606 58.984 A 40.822 40.822 0 0 0 19.735 61.808 A 48.127 48.127 0 0 0 19.385 63.184 A 42.255 42.255 0 0 0 18.555 67.774 L 14.551 67.383 L 14.161 66.504 A 24.489 24.489 0 0 0 16.797 62.891 Q 17.969 60.938 18.751 58.789 Q 18.814 58.598 18.836 58.449 A 1.013 1.013 0 0 0 18.848 58.301 L 18.848 57.91 L 18.848 57.52 L 18.848 57.129 L 18.848 56.885 L 18.848 56.543 L 18.848 56.201 L 18.848 55.859 A 68.946 68.946 0 0 0 17.594 52.396 A 58.569 58.569 0 0 0 16.993 50.928 A 50.862 50.862 0 0 0 14.844 46.484 A 0.628 0.628 0 0 0 14.713 46.339 Q 14.552 46.211 14.325 46.238 A 0.734 0.734 0 0 0 14.307 46.24 A 0.622 0.622 0 0 0 14.028 46.36 Q 13.842 46.495 13.672 46.777 A 37.752 37.752 0 0 0 12.668 48.291 A 43.694 43.694 0 0 0 12.305 48.877 A 31.54 31.54 0 0 0 11.036 51.172 L 10.938 49.219 L 10.938 47.363 Q 12.11 46.68 13.184 45.752 Q 14.258 44.824 15.137 43.652 Q 15.333 43.555 15.43 43.311 A 1.588 1.588 0 0 0 15.492 43.127 Q 15.517 43.033 15.524 42.947 A 0.841 0.841 0 0 0 15.528 42.871 L 15.528 42.627 L 15.528 42.383 L 15.528 42.139 L 15.528 41.895 Q 15.626 41.211 15.674 40.43 A 25.043 25.043 0 0 0 15.723 38.867 A 29.189 29.189 0 0 0 15.677 37.21 A 26.897 26.897 0 0 0 15.674 37.158 A 24.708 24.708 0 0 0 15.531 35.571 A 23.315 23.315 0 0 0 15.528 35.547 A 0.538 0.538 0 0 0 15.509 35.398 A 0.358 0.358 0 0 0 15.284 35.156 A 0.334 0.334 0 0 0 15.159 35.132 Q 14.966 35.132 14.747 35.352 Q 13.672 35.84 12.794 36.377 A 21.118 21.118 0 0 0 11.135 37.499 L 11.133 37.5 Q 10.059 36.426 8.887 35.4 A 27.325 27.325 0 0 0 6.446 33.496 A 1.703 1.703 0 0 0 6.296 33.395 Q 6.097 33.276 5.942 33.276 A 0.35 0.35 0 0 0 5.811 33.301 A 2.997 2.997 0 0 1 5.705 33.341 Q 5.556 33.394 5.481 33.398 A 0.221 0.221 0 0 1 5.469 33.399 Q 5.274 34.277 5.225 35.254 A 39.105 39.105 0 0 0 5.176 37.207 A 42.605 42.605 0 0 0 5.204 38.764 A 36.964 36.964 0 0 0 5.225 39.258 Q 5.274 40.234 5.469 41.211 A 7.152 7.152 0 0 0 5.579 41.516 A 9.45 9.45 0 0 0 5.714 41.846 A 3.946 3.946 0 0 0 6.043 42.462 A 3.675 3.675 0 0 0 6.055 42.481 A 54.259 54.259 0 0 0 7.471 43.652 Q 8.204 44.238 8.985 44.727 A 2.199 2.199 0 0 0 9.067 45.308 A 2.964 2.964 0 0 0 9.229 45.752 A 7.713 7.713 0 0 1 9.475 46.364 A 10.205 10.205 0 0 1 9.669 46.973 L 9.669 51.856 A 83.934 83.934 0 0 0 7.136 50.781 A 98.989 98.989 0 0 0 5.909 50.293 A 85.639 85.639 0 0 0 1.856 48.828 A 9.517 9.517 0 0 0 1.556 48.799 Q 1.004 48.756 0.689 48.807 A 1.274 1.274 0 0 0 0.587 48.828 A 0.401 0.401 0 0 0 0.398 48.929 Q 0.232 49.093 0.288 49.479 A 1.691 1.691 0 0 0 0.294 49.512 A 32.542 32.542 0 0 0 1.698 55.102 A 30.256 30.256 0 0 0 1.758 55.274 Q 2.735 58.008 4.005 60.547 Q 4.297 60.84 4.639 61.231 A 5.673 5.673 0 0 0 5.044 61.646 A 7.507 7.507 0 0 0 5.469 62.012 Q 6.739 62.598 8.057 63.037 Q 9.376 63.477 10.743 63.672 A 15.89 15.89 0 0 0 11.501 64.868 A 17.542 17.542 0 0 0 11.622 65.039 Q 11.957 65.509 12.385 66.071 A 64.323 64.323 0 0 0 12.794 66.602 L 12.794 67.09 A 294.794 294.794 0 0 0 10.767 66.895 A 362.819 362.819 0 0 0 8.594 66.699 A 52.971 52.971 0 0 0 4.005 66.504 Q 3.169 66.504 2.798 66.826 A 0.832 0.832 0 0 0 2.686 66.943 Q 2.344 67.383 2.735 68.066 Q 4.786 72.07 7.374 75.488 Q 9.962 78.906 12.989 81.738 Q 13.575 82.324 14.307 82.764 A 5.372 5.372 0 0 0 15.912 83.397 A 5.699 5.699 0 0 0 15.919 83.399 A 314.517 314.517 0 0 0 17.723 83.594 L 17.725 83.594 A 17.682 17.682 0 0 0 18.926 83.677 A 21.838 21.838 0 0 0 19.727 83.691 A 19.617 19.617 0 0 0 21.68 83.594 A 183.862 183.862 0 0 0 22.632 83.496 A 157.271 157.271 0 0 0 23.536 83.399 A 62.715 62.715 0 0 0 25.015 84.687 A 73.119 73.119 0 0 0 25.635 85.205 A 27.931 27.931 0 0 0 27.93 86.914 A 11.513 11.513 0 0 1 28.141 86.969 Q 28.48 87.061 28.956 87.207 A 1.861 1.861 0 0 0 29.082 87.241 Q 29.587 87.359 29.683 87.029 A 0.471 0.471 0 0 0 29.688 87.012 A 29.015 29.015 0 0 0 31.649 81.896 A 33.255 33.255 0 0 0 31.983 80.615 A 39.497 39.497 0 0 0 33.008 73.535 Z M 52.833 21.875 L 58.497 31.934 A 2.788 2.788 0 0 0 59.117 32.745 A 3.424 3.424 0 0 0 59.376 32.959 A 2.797 2.797 0 0 0 60.309 33.426 A 2.657 2.657 0 0 0 60.645 33.496 L 71.973 35.742 A 2.993 2.993 0 0 1 73.78 36.816 A 3.106 3.106 0 0 1 74.512 38.867 A 4.095 4.095 0 0 1 74.464 39.514 A 3.116 3.116 0 0 1 74.317 40.088 A 3.524 3.524 0 0 1 73.873 40.925 A 4.116 4.116 0 0 1 73.731 41.113 L 65.821 49.609 Q 65.43 50 65.235 50.537 A 3.177 3.177 0 0 0 65.074 51.207 A 4.193 4.193 0 0 0 65.04 51.758 L 65.04 51.953 L 65.04 52.149 L 66.309 63.574 A 0.416 0.416 0 0 0 66.338 63.724 A 0.51 0.51 0 0 0 66.358 63.77 A 0.47 0.47 0 0 1 66.398 63.879 A 0.399 0.399 0 0 1 66.407 63.965 A 3.139 3.139 0 0 1 66.106 65.346 A 3.137 3.137 0 0 1 65.43 66.26 A 3.423 3.423 0 0 1 64.389 66.952 A 3.101 3.101 0 0 1 63.184 67.188 Q 62.794 67.188 62.452 67.09 A 17.033 17.033 0 0 1 62.122 66.992 A 13.794 13.794 0 0 1 61.817 66.895 L 51.368 62.012 Q 51.075 61.816 50.733 61.768 A 4.837 4.837 0 0 0 50.287 61.726 A 5.826 5.826 0 0 0 50.001 61.719 A 5.56 5.56 0 0 0 49.531 61.738 A 4.62 4.62 0 0 0 49.268 61.768 Q 48.926 61.816 48.633 62.012 L 38.184 66.797 A 13.794 13.794 0 0 1 37.879 66.895 A 17.033 17.033 0 0 1 37.549 66.992 A 2.692 2.692 0 0 1 37.22 67.065 A 2.008 2.008 0 0 1 36.915 67.09 A 3.317 3.317 0 0 1 35.639 66.851 A 3.109 3.109 0 0 1 34.62 66.162 A 3.11 3.11 0 0 1 33.692 63.91 A 4.001 4.001 0 0 1 33.692 63.867 L 33.692 63.672 L 33.692 63.477 L 35.059 52.149 L 35.059 51.953 L 35.059 51.758 A 4.095 4.095 0 0 0 35.01 51.111 A 3.116 3.116 0 0 0 34.864 50.537 Q 34.669 50 34.278 49.609 L 26.465 41.113 A 4.883 4.883 0 0 1 25.863 40.157 A 4.547 4.547 0 0 1 25.831 40.088 A 2.704 2.704 0 0 1 25.615 39.32 A 3.444 3.444 0 0 1 25.587 38.867 Q 25.587 37.695 26.319 36.816 A 2.993 2.993 0 0 1 28.126 35.742 L 39.454 33.496 A 2.438 2.438 0 0 0 40.674 32.959 A 4.647 4.647 0 0 0 41.602 31.934 L 47.266 21.875 A 2.909 2.909 0 0 1 48.389 20.654 A 3.073 3.073 0 0 1 50.001 20.215 A 3.666 3.666 0 0 1 50.916 20.325 A 2.971 2.971 0 0 1 51.71 20.654 A 2.909 2.909 0 0 1 52.833 21.875 Z M 82.227 1.074 A 3.638 3.638 0 0 0 81.223 0.369 A 4.206 4.206 0 0 0 81.055 0.293 A 3.679 3.679 0 0 0 79.59 0 A 3.615 3.615 0 0 0 77.078 1.004 A 4.696 4.696 0 0 0 77.003 1.074 Q 75.88 2.149 75.88 3.711 A 3.679 3.679 0 0 0 76.172 5.176 A 3.888 3.888 0 0 0 76.777 6.146 A 4.682 4.682 0 0 0 77.051 6.445 A 7.474 7.474 0 0 1 79.102 8.887 Q 79.883 10.352 79.883 12.012 A 6.862 6.862 0 0 1 79.407 14.58 A 6.555 6.555 0 0 1 79.102 15.234 A 7.474 7.474 0 0 1 77.051 17.676 A 3.096 3.096 0 0 0 76.172 18.848 A 3.679 3.679 0 0 0 75.88 20.313 A 3.499 3.499 0 0 0 76.933 22.882 A 4.218 4.218 0 0 0 77.003 22.949 A 3.749 3.749 0 0 0 79.688 24.024 A 3.679 3.679 0 0 0 81.153 23.731 A 3.799 3.799 0 0 0 82.068 23.181 A 3.468 3.468 0 0 0 82.325 22.949 A 6.61 6.61 0 0 1 84.669 20.752 A 6.416 6.416 0 0 1 87.307 19.951 A 7.838 7.838 0 0 1 87.989 19.922 A 6.423 6.423 0 0 1 91.212 20.752 Q 92.676 21.582 93.555 22.949 A 4.292 4.292 0 0 0 94.398 23.599 A 5.08 5.08 0 0 0 94.727 23.779 A 3.224 3.224 0 0 0 95.759 24.088 A 4.093 4.093 0 0 0 96.29 24.121 A 3.498 3.498 0 0 0 98.682 23.183 A 4.662 4.662 0 0 0 98.878 22.998 Q 100.001 21.875 100.001 20.313 A 3.597 3.597 0 0 0 99.899 19.442 A 3.061 3.061 0 0 0 99.708 18.897 A 5.382 5.382 0 0 0 99.11 17.907 A 6.21 6.21 0 0 0 98.926 17.676 A 17.611 17.611 0 0 1 97.559 16.153 Q 96.147 14.366 95.869 12.809 A 4.256 4.256 0 0 1 95.801 12.061 A 4.991 4.991 0 0 1 96.205 10.176 Q 96.924 8.412 98.926 6.348 Q 99.317 5.859 99.561 5.225 Q 99.805 4.59 99.805 3.906 A 3.744 3.744 0 0 0 99.489 2.354 A 3.637 3.637 0 0 0 98.731 1.27 A 3.578 3.578 0 0 0 96.143 0.196 A 4.517 4.517 0 0 0 96.094 0.195 A 4.213 4.213 0 0 0 95.239 0.28 A 3.643 3.643 0 0 0 94.825 0.391 A 3.458 3.458 0 0 0 93.751 0.977 A 7.006 7.006 0 0 1 91.26 3.272 Q 89.747 4.102 87.989 4.102 Q 86.231 4.102 84.717 3.272 A 7.369 7.369 0 0 1 82.227 1.074 Z M 44.337 76.856 A 3.638 3.638 0 0 0 43.333 76.151 A 4.206 4.206 0 0 0 43.165 76.074 A 3.679 3.679 0 0 0 41.7 75.781 A 3.499 3.499 0 0 0 39.131 76.835 A 4.218 4.218 0 0 0 39.063 76.904 A 3.749 3.749 0 0 0 37.989 79.59 A 3.679 3.679 0 0 0 38.282 81.055 A 3.799 3.799 0 0 0 38.831 81.97 A 3.468 3.468 0 0 0 39.063 82.227 A 6.583 6.583 0 0 1 41.163 84.668 A 7.02 7.02 0 0 1 41.889 87.564 A 8.247 8.247 0 0 1 41.895 87.891 Q 41.895 89.551 41.163 91.016 A 6.966 6.966 0 0 1 39.161 93.457 A 3.096 3.096 0 0 0 38.282 94.629 A 3.679 3.679 0 0 0 37.989 96.094 A 3.659 3.659 0 0 0 39.077 98.744 A 4.537 4.537 0 0 0 39.112 98.779 Q 40.235 99.902 41.797 99.902 A 3.679 3.679 0 0 0 43.262 99.609 A 3.096 3.096 0 0 0 44.434 98.731 A 6.61 6.61 0 0 1 46.778 96.533 Q 48.243 95.703 50.001 95.703 Q 51.758 95.703 53.272 96.533 A 6.647 6.647 0 0 1 55.181 98.076 A 6.294 6.294 0 0 1 55.665 98.731 A 4.45 4.45 0 0 0 56.739 99.365 A 3.217 3.217 0 0 0 57.839 99.606 A 3.73 3.73 0 0 0 58.008 99.609 A 3.499 3.499 0 0 0 60.578 98.556 A 4.218 4.218 0 0 0 60.645 98.486 A 3.749 3.749 0 0 0 61.719 95.801 A 3.261 3.261 0 0 0 61.524 94.678 Q 61.329 94.141 61.036 93.652 A 18.448 18.448 0 0 1 59.669 92.087 Q 58.293 90.303 57.994 88.772 A 4.334 4.334 0 0 1 57.911 87.94 A 4.927 4.927 0 0 1 58.332 86.025 Q 59.058 84.302 61.036 82.324 Q 61.524 81.738 61.817 81.055 A 3.679 3.679 0 0 0 62.11 79.59 A 3.615 3.615 0 0 0 61.106 77.077 A 4.696 4.696 0 0 0 61.036 77.002 Q 59.962 75.879 58.399 75.879 A 3.679 3.679 0 0 0 56.934 76.172 A 3.799 3.799 0 0 0 56.019 76.721 A 3.468 3.468 0 0 0 55.762 76.953 A 7.031 7.031 0 0 1 53.321 79.102 A 6.716 6.716 0 0 1 50.208 79.882 A 7.851 7.851 0 0 1 50.098 79.883 A 7.1 7.1 0 0 1 48.083 79.605 A 6.179 6.179 0 0 1 46.778 79.053 Q 45.313 78.223 44.337 76.856 Z M 6.348 1.074 A 4.563 4.563 0 0 0 5.707 0.753 A 3.879 3.879 0 0 0 5.372 0.635 A 3.383 3.383 0 0 0 4.395 0.488 A 3.659 3.659 0 0 0 1.745 1.577 A 4.537 4.537 0 0 0 1.71 1.611 Q 0.587 2.734 0.587 4.297 A 2.572 2.572 0 0 0 0.736 5.151 A 2.974 2.974 0 0 0 0.782 5.274 L 1.172 6.25 A 6.583 6.583 0 0 1 3.272 8.691 A 6.893 6.893 0 0 1 4.005 11.816 Q 4.005 13.574 3.272 15.039 A 6.583 6.583 0 0 1 1.172 17.481 A 3.88 3.88 0 0 0 0.621 18.184 A 4.969 4.969 0 0 0 0.342 18.701 A 3.541 3.541 0 0 0 0.001 20.215 A 3.499 3.499 0 0 0 1.055 22.784 A 4.218 4.218 0 0 0 1.124 22.852 Q 2.247 23.926 3.712 23.926 A 4.432 4.432 0 0 0 4.862 23.78 A 4.041 4.041 0 0 0 5.176 23.682 A 3.113 3.113 0 0 0 6.348 22.949 A 6.61 6.61 0 0 1 8.692 20.752 Q 10.157 19.922 11.915 19.922 A 6.423 6.423 0 0 1 15.137 20.752 Q 16.602 21.582 17.579 22.949 A 4.292 4.292 0 0 0 18.421 23.599 A 5.08 5.08 0 0 0 18.751 23.779 A 3.231 3.231 0 0 0 20.215 24.121 A 3.659 3.659 0 0 0 22.866 23.033 A 4.537 4.537 0 0 0 22.901 22.998 Q 24.024 21.875 24.024 20.313 A 3.597 3.597 0 0 0 23.922 19.442 A 3.061 3.061 0 0 0 23.731 18.897 A 5.382 5.382 0 0 0 23.133 17.907 A 6.21 6.21 0 0 0 22.95 17.676 A 17.015 17.015 0 0 1 21.604 16.173 Q 19.837 13.926 19.874 12.012 A 5.124 5.124 0 0 1 20.319 10.099 Q 21.081 8.315 23.145 6.25 A 3.343 3.343 0 0 0 23.712 5.186 A 3.806 3.806 0 0 0 23.731 5.127 A 4.457 4.457 0 0 0 23.926 3.809 A 3.744 3.744 0 0 0 23.61 2.256 A 3.637 3.637 0 0 0 22.852 1.172 A 3.578 3.578 0 0 0 20.264 0.098 A 4.517 4.517 0 0 0 20.215 0.098 Q 19.532 0.098 18.897 0.342 A 4.336 4.336 0 0 0 18.044 0.779 A 3.867 3.867 0 0 0 17.774 0.977 A 6.235 6.235 0 0 1 15.381 3.272 A 6.804 6.804 0 0 1 12.357 4.094 A 8.088 8.088 0 0 1 12.012 4.102 Q 10.255 4.102 8.741 3.272 A 6.647 6.647 0 0 1 6.831 1.729 A 6.294 6.294 0 0 1 6.348 1.074 Z" vector-effect="non-scaling-stroke"/></g></svg>