<svg width="73.145" height="100.098" viewBox="0 0 73.145 100.098" xmlns="http://www.w3.org/2000/svg"><g id="svgGroup" stroke-linecap="round" fill-rule="evenodd" font-size="9pt" stroke="#000" stroke-width="0.25mm" fill="#000" style="stroke:#000;stroke-width:0.25mm;fill:#000"><path d="M 40.821 2.442 L 49.121 17.481 A 4.87 4.87 0 0 0 50.44 18.994 A 4.374 4.374 0 0 0 52.344 19.824 L 69.141 23.242 A 4.672 4.672 0 0 1 72.022 24.854 A 4.598 4.598 0 0 1 73.145 27.93 A 5.074 5.074 0 0 1 72.803 29.785 A 4.588 4.588 0 0 1 72.345 30.676 A 3.782 3.782 0 0 1 71.875 31.25 L 60.254 43.75 A 5.571 5.571 0 0 0 59.326 45.264 Q 58.985 46.094 58.985 47.071 L 58.985 47.315 L 58.985 47.657 L 60.938 64.649 A 0.505 0.505 0 0 0 60.943 64.722 Q 60.949 64.759 60.96 64.802 A 1.261 1.261 0 0 0 60.987 64.893 A 1.274 1.274 0 0 1 61.012 64.98 Q 61.024 65.024 61.029 65.063 A 0.507 0.507 0 0 1 61.035 65.137 A 4.87 4.87 0 0 1 60.687 67.004 A 4.542 4.542 0 0 1 59.619 68.555 A 4.802 4.802 0 0 1 56.153 69.922 Q 55.664 69.922 55.176 69.824 A 5.56 5.56 0 0 1 54.215 69.538 A 6.05 6.05 0 0 1 54.199 69.532 L 38.574 62.5 A 2.922 2.922 0 0 0 38.147 62.329 Q 37.944 62.265 37.713 62.22 A 4.768 4.768 0 0 0 37.647 62.207 A 6.063 6.063 0 0 0 36.947 62.12 A 5.136 5.136 0 0 0 36.621 62.11 A 6.123 6.123 0 0 0 36.001 62.14 A 4.793 4.793 0 0 0 35.547 62.207 A 2.871 2.871 0 0 0 34.891 62.427 A 3.56 3.56 0 0 0 34.571 62.598 L 18.946 69.727 A 3.257 3.257 0 0 1 18.391 69.941 A 3.993 3.993 0 0 1 18.067 70.02 A 4.931 4.931 0 0 1 17.486 70.099 A 6.304 6.304 0 0 1 16.992 70.117 A 4.593 4.593 0 0 1 13.668 68.745 A 5.766 5.766 0 0 1 13.623 68.701 A 4.782 4.782 0 0 1 12.488 66.965 A 4.692 4.692 0 0 1 12.207 65.332 L 12.207 65.088 L 12.207 64.844 L 14.258 47.559 L 14.258 47.315 L 14.258 47.071 A 4.896 4.896 0 0 0 14.096 45.797 A 4.378 4.378 0 0 0 13.916 45.264 A 5.571 5.571 0 0 0 12.988 43.75 L 1.367 31.25 Q 0.684 30.664 0.342 29.785 A 5.074 5.074 0 0 1 0 27.93 A 4.786 4.786 0 0 1 1.123 24.805 A 4.763 4.763 0 0 1 2.557 23.607 A 4.495 4.495 0 0 1 3.906 23.145 L 20.703 19.824 Q 21.778 19.629 22.656 18.994 A 5.881 5.881 0 0 0 24.121 17.481 L 32.422 2.442 A 4.593 4.593 0 0 1 33.925 0.815 A 5.492 5.492 0 0 1 34.131 0.684 A 4.696 4.696 0 0 1 36.621 0 Q 37.891 0 39.014 0.684 A 5.49 5.49 0 0 1 40.821 2.442 Z M 32.324 77.051 L 32.324 76.953 A 5.721 5.721 0 0 0 31.437 76.342 A 5.061 5.061 0 0 0 31.104 76.172 A 3.197 3.197 0 0 0 30.069 75.897 A 3.896 3.896 0 0 0 29.688 75.879 A 3.659 3.659 0 0 0 27.037 76.967 A 4.537 4.537 0 0 0 27.002 77.002 Q 25.879 78.125 25.879 79.688 A 3.679 3.679 0 0 0 26.172 81.153 A 3.096 3.096 0 0 0 27.051 82.324 A 7.474 7.474 0 0 1 29.102 84.766 A 6.716 6.716 0 0 1 29.882 87.879 A 7.851 7.851 0 0 1 29.883 87.989 A 6.862 6.862 0 0 1 29.406 90.556 A 6.555 6.555 0 0 1 29.102 91.211 A 6.769 6.769 0 0 1 27.797 92.948 A 6.213 6.213 0 0 1 27.051 93.555 Q 26.563 94.141 26.27 94.824 A 3.679 3.679 0 0 0 25.977 96.289 A 3.744 3.744 0 0 0 26.293 97.842 A 3.637 3.637 0 0 0 27.051 98.926 A 3.578 3.578 0 0 0 29.639 100 A 4.517 4.517 0 0 0 29.688 100 A 3.679 3.679 0 0 0 31.153 99.707 A 3.799 3.799 0 0 0 32.068 99.158 A 3.468 3.468 0 0 0 32.324 98.926 A 8.062 8.062 0 0 1 34.766 96.68 Q 36.231 95.801 37.988 95.801 A 6.146 6.146 0 0 1 41.211 96.68 A 7.045 7.045 0 0 1 43.555 98.926 A 4.327 4.327 0 0 0 44.32 99.541 A 3.704 3.704 0 0 0 44.824 99.805 A 3.573 3.573 0 0 0 45.743 100.055 A 4.663 4.663 0 0 0 46.387 100.098 A 3.744 3.744 0 0 0 47.94 99.781 A 3.637 3.637 0 0 0 49.024 99.024 A 3.578 3.578 0 0 0 50.098 96.436 A 4.517 4.517 0 0 0 50.098 96.387 A 4.317 4.317 0 0 0 50.022 95.56 A 3.507 3.507 0 0 0 49.854 94.971 Q 49.61 94.336 49.121 93.75 A 17.611 17.611 0 0 1 47.754 92.227 Q 46.342 90.44 46.064 88.883 A 4.256 4.256 0 0 1 45.996 88.135 A 4.991 4.991 0 0 1 46.4 86.251 Q 47.119 84.487 49.121 82.422 A 3.638 3.638 0 0 0 49.826 81.418 A 4.206 4.206 0 0 0 49.903 81.25 A 3.679 3.679 0 0 0 50.196 79.785 A 3.659 3.659 0 0 0 49.107 77.135 A 4.537 4.537 0 0 0 49.072 77.1 A 3.986 3.986 0 0 0 47.995 76.318 A 3.417 3.417 0 0 0 46.485 75.977 A 3.679 3.679 0 0 0 45.02 76.27 A 3.888 3.888 0 0 0 44.049 76.874 A 4.682 4.682 0 0 0 43.75 77.149 A 6.461 6.461 0 0 1 41.498 79.267 A 7.589 7.589 0 0 1 41.358 79.346 Q 39.844 80.176 38.086 80.176 A 6.747 6.747 0 0 1 35.558 79.707 A 6.416 6.416 0 0 1 34.717 79.297 A 7.168 7.168 0 0 1 32.936 77.858 A 6.561 6.561 0 0 1 32.324 77.051 Z" vector-effect="non-scaling-stroke"/></g></svg>