<svg width="81.641" height="100.001" viewBox="0 0 81.641 100.001" xmlns="http://www.w3.org/2000/svg"><g id="svgGroup" stroke-linecap="round" fill-rule="evenodd" font-size="9pt" stroke="#000" stroke-width="0.25mm" fill="#000" style="stroke:#000;stroke-width:0.25mm;fill:#000"><path d="M 45.508 2.637 L 45.606 2.735 L 54.981 19.434 A 5.383 5.383 0 0 0 56.159 20.922 A 5.097 5.097 0 0 0 56.495 21.192 Q 57.422 21.875 58.594 22.071 L 77.344 25.879 A 5.328 5.328 0 0 1 80.421 27.735 A 5.046 5.046 0 0 1 81.641 31.055 A 5.205 5.205 0 0 1 81.393 32.674 A 4.852 4.852 0 0 1 81.251 33.057 Q 80.86 33.985 80.274 34.668 L 67.286 48.926 A 5.794 5.794 0 0 0 66.544 50.035 A 6.942 6.942 0 0 0 66.309 50.537 Q 65.919 51.465 65.919 52.539 L 65.919 52.881 L 65.919 53.125 L 68.165 72.266 A 0.581 0.581 0 0 0 68.169 72.328 Q 68.178 72.418 68.213 72.559 Q 68.262 72.754 68.262 72.852 Q 68.262 75.098 66.651 76.66 Q 65.04 78.223 62.891 78.223 A 8.212 8.212 0 0 1 62.283 78.201 Q 61.997 78.18 61.742 78.138 A 4.987 4.987 0 0 1 61.671 78.125 Q 61.133 78.028 60.547 77.735 L 43.165 69.727 A 7.718 7.718 0 0 0 42.516 69.502 A 9.502 9.502 0 0 0 42.09 69.385 A 4.816 4.816 0 0 0 40.919 69.238 Q 40.235 69.238 39.698 69.385 A 5.513 5.513 0 0 0 39.078 69.596 A 7.048 7.048 0 0 0 38.575 69.824 L 21.094 77.735 Q 20.606 78.028 20.069 78.125 A 6.185 6.185 0 0 1 19.092 78.221 A 6.923 6.923 0 0 1 18.946 78.223 A 5.314 5.314 0 0 1 16.527 77.676 A 5.371 5.371 0 0 1 15.137 76.66 A 5.174 5.174 0 0 1 13.575 72.922 A 6.41 6.41 0 0 1 13.575 72.852 L 13.575 72.559 L 13.575 72.266 L 15.919 53.125 L 15.919 52.881 L 15.919 52.539 A 5.205 5.205 0 0 0 15.671 50.92 A 4.852 4.852 0 0 0 15.528 50.537 Q 15.137 49.61 14.454 48.926 L 1.465 34.766 Q 0.782 34.082 0.391 33.155 Q 0.001 32.227 0.001 31.153 A 5.177 5.177 0 0 1 1.221 27.735 A 5.328 5.328 0 0 1 4.297 25.879 L 23.047 22.168 A 5.921 5.921 0 0 0 25.147 21.192 Q 26.075 20.508 26.661 19.531 L 36.231 2.735 A 5.122 5.122 0 0 1 38.135 0.733 A 5.17 5.17 0 0 1 40.436 0.018 A 6.344 6.344 0 0 1 40.919 0 Q 42.383 0 43.604 0.733 A 5.337 5.337 0 0 1 45.508 2.637 Z M 15.821 91.699 L 15.919 91.602 L 39.454 79.102 Q 39.705 79.018 40.029 78.934 A 13.021 13.021 0 0 1 40.137 78.906 Q 40.528 78.809 40.919 78.809 Q 41.309 78.809 41.7 78.906 A 2.381 2.381 0 0 1 42.108 79.047 A 1.948 1.948 0 0 1 42.383 79.199 L 65.919 91.602 Q 66.993 92.188 67.628 93.213 A 4.268 4.268 0 0 1 68.262 95.488 A 5.059 5.059 0 0 1 68.262 95.508 A 4.321 4.321 0 0 1 66.985 98.641 A 5.265 5.265 0 0 1 66.944 98.682 A 4.322 4.322 0 0 1 63.828 100 A 5.186 5.186 0 0 1 63.77 100 L 63.721 100 L 63.672 100 L 18.067 100 A 4.321 4.321 0 0 1 14.934 98.723 A 5.265 5.265 0 0 1 14.893 98.682 A 4.322 4.322 0 0 1 13.575 95.566 A 5.186 5.186 0 0 1 13.575 95.508 A 4.354 4.354 0 0 1 13.932 93.741 A 4.22 4.22 0 0 1 14.21 93.213 A 4.31 4.31 0 0 1 15.019 92.241 A 3.725 3.725 0 0 1 15.821 91.699 Z" vector-effect="non-scaling-stroke"/></g></svg>