<svg width="87.501" height="99.903" viewBox="0 0 87.501 99.903" xmlns="http://www.w3.org/2000/svg"><g id="svgGroup" stroke-linecap="round" fill-rule="evenodd" font-size="9pt" stroke="#000" stroke-width="0.25mm" fill="#000" style="stroke:#000;stroke-width:0.25mm;fill:#000"><path d="M 47.169 15.625 L 54.102 28.125 A 4.627 4.627 0 0 0 54.827 29.024 A 4.075 4.075 0 0 0 55.274 29.395 A 4.19 4.19 0 0 0 56.673 30.039 A 4.842 4.842 0 0 0 56.837 30.078 L 70.704 32.813 Q 71.973 33.203 72.803 34.229 A 3.69 3.69 0 0 1 73.633 36.621 A 4.457 4.457 0 0 1 73.438 37.94 A 3.399 3.399 0 0 1 72.958 38.922 A 3.201 3.201 0 0 1 72.852 39.063 L 63.184 49.512 A 4.159 4.159 0 0 0 62.452 50.781 A 4.259 4.259 0 0 0 62.211 52.052 A 4.887 4.887 0 0 0 62.208 52.246 L 62.208 52.441 L 62.208 52.734 L 63.868 66.699 L 63.868 66.943 L 63.868 67.188 A 3.854 3.854 0 0 1 62.732 69.983 A 4.649 4.649 0 0 1 62.696 70.02 A 4.084 4.084 0 0 1 61.49 70.87 A 3.67 3.67 0 0 1 59.962 71.191 A 4.382 4.382 0 0 1 59.228 71.132 A 3.905 3.905 0 0 1 59.034 71.094 A 3.589 3.589 0 0 1 58.204 70.801 L 45.411 64.941 Q 45.02 64.746 44.63 64.649 A 3.17 3.17 0 0 0 44.187 64.572 A 4.244 4.244 0 0 0 43.751 64.551 A 4.204 4.204 0 0 0 43.287 64.575 A 3.142 3.142 0 0 0 42.872 64.649 Q 42.481 64.746 42.09 64.941 L 29.2 70.899 A 5.248 5.248 0 0 1 28.96 70.972 Q 28.851 71.002 28.728 71.033 A 10.944 10.944 0 0 1 28.467 71.094 A 4.169 4.169 0 0 1 27.721 71.188 A 4.75 4.75 0 0 1 27.54 71.191 A 3.828 3.828 0 0 1 24.805 70.068 A 3.687 3.687 0 0 1 23.635 67.388 A 4.634 4.634 0 0 1 23.633 67.285 L 23.633 67.041 L 23.633 66.797 L 25.294 52.734 L 25.294 52.539 L 25.294 52.246 A 4.432 4.432 0 0 0 25.148 51.096 A 4.041 4.041 0 0 0 25.049 50.781 A 3.113 3.113 0 0 0 24.317 49.609 L 14.844 39.16 A 4.45 4.45 0 0 1 14.21 38.086 A 3.072 3.072 0 0 1 14.016 37.387 A 4.237 4.237 0 0 1 13.965 36.719 A 3.69 3.69 0 0 1 14.796 34.326 Q 15.626 33.301 16.895 32.91 L 30.762 30.176 A 4.341 4.341 0 0 0 31.994 29.705 A 4.009 4.009 0 0 0 32.325 29.492 Q 33.008 29.004 33.497 28.32 L 40.43 15.82 A 3.536 3.536 0 0 1 41.846 14.307 Q 42.774 13.77 43.848 13.77 A 4.087 4.087 0 0 1 45.233 14 A 3.801 3.801 0 0 1 45.801 14.258 A 3.453 3.453 0 0 1 47.169 15.625 Z M 69.727 1.074 A 3.638 3.638 0 0 0 68.723 0.369 A 4.206 4.206 0 0 0 68.555 0.293 A 3.679 3.679 0 0 0 67.09 0 A 3.615 3.615 0 0 0 64.578 1.004 A 4.696 4.696 0 0 0 64.503 1.074 Q 63.38 2.149 63.38 3.711 A 3.679 3.679 0 0 0 63.672 5.176 A 3.888 3.888 0 0 0 64.277 6.146 A 4.682 4.682 0 0 0 64.551 6.445 A 7.474 7.474 0 0 1 66.602 8.887 Q 67.383 10.352 67.383 12.012 A 6.862 6.862 0 0 1 66.907 14.58 A 6.555 6.555 0 0 1 66.602 15.234 A 7.474 7.474 0 0 1 64.551 17.676 A 3.096 3.096 0 0 0 63.672 18.848 A 3.679 3.679 0 0 0 63.38 20.313 A 3.499 3.499 0 0 0 64.433 22.882 A 4.218 4.218 0 0 0 64.503 22.949 A 3.749 3.749 0 0 0 67.188 24.024 A 3.679 3.679 0 0 0 68.653 23.731 A 3.799 3.799 0 0 0 69.568 23.181 A 3.468 3.468 0 0 0 69.825 22.949 A 6.61 6.61 0 0 1 72.169 20.752 A 6.416 6.416 0 0 1 74.807 19.951 A 7.838 7.838 0 0 1 75.489 19.922 A 6.423 6.423 0 0 1 78.712 20.752 Q 80.176 21.582 81.055 22.949 A 4.292 4.292 0 0 0 81.898 23.599 A 5.08 5.08 0 0 0 82.227 23.779 A 3.224 3.224 0 0 0 83.259 24.088 A 4.093 4.093 0 0 0 83.79 24.121 A 3.498 3.498 0 0 0 86.182 23.183 A 4.662 4.662 0 0 0 86.378 22.998 Q 87.501 21.875 87.501 20.313 A 3.597 3.597 0 0 0 87.399 19.442 A 3.061 3.061 0 0 0 87.208 18.897 A 5.382 5.382 0 0 0 86.61 17.907 A 6.21 6.21 0 0 0 86.426 17.676 A 17.611 17.611 0 0 1 85.059 16.153 Q 83.647 14.366 83.369 12.809 A 4.256 4.256 0 0 1 83.301 12.061 A 4.991 4.991 0 0 1 83.705 10.176 Q 84.424 8.412 86.426 6.348 Q 86.817 5.859 87.061 5.225 Q 87.305 4.59 87.305 3.906 A 3.744 3.744 0 0 0 86.989 2.354 A 3.637 3.637 0 0 0 86.231 1.27 A 3.578 3.578 0 0 0 83.643 0.196 A 4.517 4.517 0 0 0 83.594 0.195 A 4.213 4.213 0 0 0 82.739 0.28 A 3.643 3.643 0 0 0 82.325 0.391 A 3.458 3.458 0 0 0 81.251 0.977 A 7.006 7.006 0 0 1 78.76 3.272 Q 77.247 4.102 75.489 4.102 Q 73.731 4.102 72.217 3.272 A 7.369 7.369 0 0 1 69.727 1.074 Z M 38.087 76.856 A 3.638 3.638 0 0 0 37.083 76.151 A 4.206 4.206 0 0 0 36.915 76.074 A 3.679 3.679 0 0 0 35.45 75.781 A 3.744 3.744 0 0 0 33.897 76.098 A 3.637 3.637 0 0 0 32.813 76.856 A 3.578 3.578 0 0 0 31.739 79.444 A 4.517 4.517 0 0 0 31.739 79.492 Q 31.739 80.274 32.032 81.006 A 3.939 3.939 0 0 0 32.417 81.743 A 3.227 3.227 0 0 0 32.813 82.227 A 6.583 6.583 0 0 1 34.913 84.668 A 6.893 6.893 0 0 1 35.645 87.793 Q 35.645 89.551 34.913 91.016 A 6.966 6.966 0 0 1 32.911 93.457 A 3.096 3.096 0 0 0 32.032 94.629 A 3.679 3.679 0 0 0 31.739 96.094 A 3.659 3.659 0 0 0 32.827 98.744 A 4.537 4.537 0 0 0 32.862 98.779 Q 33.985 99.902 35.547 99.902 A 3.679 3.679 0 0 0 37.012 99.609 A 3.096 3.096 0 0 0 38.184 98.731 A 6.61 6.61 0 0 1 40.528 96.533 Q 41.993 95.703 43.751 95.703 Q 45.508 95.703 47.022 96.533 A 6.647 6.647 0 0 1 48.931 98.076 A 6.294 6.294 0 0 1 49.415 98.731 A 4.45 4.45 0 0 0 50.489 99.365 A 3.217 3.217 0 0 0 51.589 99.606 A 3.73 3.73 0 0 0 51.758 99.609 A 3.499 3.499 0 0 0 54.328 98.556 A 4.218 4.218 0 0 0 54.395 98.486 A 3.749 3.749 0 0 0 55.469 95.801 A 3.261 3.261 0 0 0 55.274 94.678 Q 55.079 94.141 54.786 93.652 A 18.448 18.448 0 0 1 53.419 92.087 Q 52.043 90.303 51.744 88.772 A 4.334 4.334 0 0 1 51.661 87.94 A 4.927 4.927 0 0 1 52.082 86.025 Q 52.808 84.302 54.786 82.324 Q 55.274 81.738 55.567 81.055 A 3.679 3.679 0 0 0 55.86 79.59 A 3.744 3.744 0 0 0 55.543 78.037 A 3.637 3.637 0 0 0 54.786 76.953 A 3.578 3.578 0 0 0 52.198 75.879 A 4.517 4.517 0 0 0 52.149 75.879 A 3.679 3.679 0 0 0 50.684 76.172 A 3.799 3.799 0 0 0 49.769 76.721 A 3.468 3.468 0 0 0 49.512 76.953 A 7.031 7.031 0 0 1 47.071 79.102 A 6.716 6.716 0 0 1 43.958 79.882 A 7.851 7.851 0 0 1 43.848 79.883 A 7.1 7.1 0 0 1 41.833 79.605 A 6.179 6.179 0 0 1 40.528 79.053 Q 39.063 78.223 38.087 76.856 Z M 6.348 1.074 A 4.563 4.563 0 0 0 5.707 0.753 A 3.879 3.879 0 0 0 5.372 0.635 A 3.383 3.383 0 0 0 4.395 0.488 A 3.659 3.659 0 0 0 1.745 1.577 A 4.537 4.537 0 0 0 1.71 1.611 A 3.986 3.986 0 0 0 0.927 2.689 A 3.417 3.417 0 0 0 0.587 4.199 A 3.06 3.06 0 0 0 0.662 4.889 A 2.619 2.619 0 0 0 0.782 5.274 L 1.172 6.25 A 6.583 6.583 0 0 1 3.272 8.691 A 6.893 6.893 0 0 1 4.005 11.816 Q 4.005 13.574 3.272 15.039 A 6.583 6.583 0 0 1 1.172 17.481 A 3.88 3.88 0 0 0 0.621 18.184 A 4.969 4.969 0 0 0 0.342 18.701 A 3.541 3.541 0 0 0 0.001 20.215 A 3.499 3.499 0 0 0 1.055 22.784 A 4.218 4.218 0 0 0 1.124 22.852 Q 2.247 23.926 3.712 23.926 A 4.432 4.432 0 0 0 4.862 23.78 A 4.041 4.041 0 0 0 5.176 23.682 A 3.113 3.113 0 0 0 6.348 22.949 A 6.61 6.61 0 0 1 8.692 20.752 Q 10.157 19.922 11.915 19.922 A 6.423 6.423 0 0 1 15.137 20.752 Q 16.602 21.582 17.579 22.949 A 4.292 4.292 0 0 0 18.421 23.599 A 5.08 5.08 0 0 0 18.751 23.779 A 3.231 3.231 0 0 0 20.215 24.121 A 3.659 3.659 0 0 0 22.866 23.033 A 4.537 4.537 0 0 0 22.901 22.998 Q 24.024 21.875 24.024 20.313 A 3.597 3.597 0 0 0 23.922 19.442 A 3.061 3.061 0 0 0 23.731 18.897 A 5.382 5.382 0 0 0 23.133 17.907 A 6.21 6.21 0 0 0 22.95 17.676 A 17.015 17.015 0 0 1 21.604 16.173 Q 19.837 13.926 19.874 12.012 A 5.124 5.124 0 0 1 20.319 10.099 Q 21.081 8.315 23.145 6.25 A 3.343 3.343 0 0 0 23.712 5.186 A 3.806 3.806 0 0 0 23.731 5.127 A 4.457 4.457 0 0 0 23.926 3.809 A 3.744 3.744 0 0 0 23.61 2.256 A 3.637 3.637 0 0 0 22.852 1.172 A 3.578 3.578 0 0 0 20.264 0.098 A 4.517 4.517 0 0 0 20.215 0.098 Q 19.532 0.098 18.897 0.342 A 4.336 4.336 0 0 0 18.044 0.779 A 3.867 3.867 0 0 0 17.774 0.977 A 6.235 6.235 0 0 1 15.381 3.272 A 6.804 6.804 0 0 1 12.357 4.094 A 8.088 8.088 0 0 1 12.012 4.102 Q 10.255 4.102 8.741 3.272 A 6.647 6.647 0 0 1 6.831 1.729 A 6.294 6.294 0 0 1 6.348 1.074 Z" vector-effect="non-scaling-stroke"/></g></svg>