<svg width="94.16" height="59.863" viewBox="0 0 94.16 59.863" xmlns="http://www.w3.org/2000/svg"><g id="svgGroup" stroke-linecap="round" fill-rule="evenodd" font-size="9pt" stroke="#000" stroke-width="0.25mm" fill="#000" style="stroke:#000;stroke-width:0.25mm;fill:#000"><path d="M 82.433 59.863 L 9.874 59.863 A 38.044 38.044 0 0 1 10.061 56.045 A 34.807 34.807 0 0 1 10.119 55.518 A 35.711 35.711 0 0 1 10.851 51.367 A 29.913 29.913 0 0 1 9.832 50.091 Q 8.863 48.814 7.631 46.988 A 129.998 129.998 0 0 1 6.456 45.215 A 29.937 29.937 0 0 1 4.344 41.266 Q 3.45 39.272 2.683 36.924 A 57.315 57.315 0 0 1 2.013 34.717 A 48.497 48.497 0 0 1 0.741 28.681 Q 0.276 25.559 0.098 22.028 A 86.052 86.052 0 0 1 0.011 19.629 A 44.54 44.54 0 0 1 0 18.628 Q 0 11.141 2.463 2.035 A 94.627 94.627 0 0 1 3.039 0 A 55.448 55.448 0 0 0 4.794 6.435 A 42.766 42.766 0 0 0 6.847 11.426 A 46.561 46.561 0 0 0 9.779 16.502 A 36.899 36.899 0 0 0 12.316 19.873 A 37.853 37.853 0 0 0 16.457 24.068 A 32.334 32.334 0 0 0 18.761 25.879 A 51.866 51.866 0 0 0 22.995 28.503 A 43.227 43.227 0 0 0 25.499 29.785 A 35.582 35.582 0 0 1 35.119 24.951 A 35.167 35.167 0 0 1 45.382 23.251 A 39.727 39.727 0 0 1 46.203 23.242 Q 52.16 23.242 57.58 25.098 A 36.397 36.397 0 0 1 67.492 30.273 A 43.166 43.166 0 0 0 71.73 28.162 A 53.868 53.868 0 0 0 74.523 26.465 A 31.957 31.957 0 0 0 78.803 23.02 A 39.867 39.867 0 0 0 81.261 20.459 A 38.535 38.535 0 0 0 85.022 15.366 A 47.516 47.516 0 0 0 87.023 11.816 A 39.865 39.865 0 0 0 89.588 5.578 A 52.749 52.749 0 0 0 91.027 0 A 86.587 86.587 0 0 1 93.113 8.592 Q 94.494 16.007 94.054 22.168 Q 93.485 30.059 91.662 35.951 A 39.477 39.477 0 0 1 90.88 38.232 A 57.436 57.436 0 0 1 89.116 42.424 Q 87.383 46.1 85.46 48.535 Q 82.57 52.1 81.771 52.813 A 2.927 2.927 0 0 1 81.749 52.832 Q 82.14 54.59 82.287 56.348 A 42.316 42.316 0 0 1 82.433 59.863 Z M 21.3 53.125 L 45.226 52.93 L 21.3 41.309 L 21.3 53.125 Z M 73.253 53.125 L 73.253 41.309 L 49.328 52.93 L 73.253 53.125 Z" vector-effect="non-scaling-stroke"/></g></svg>