<svg width="87.502" height="87.5" viewBox="0 0 87.502 87.5" xmlns="http://www.w3.org/2000/svg"><g id="svgGroup" stroke-linecap="round" fill-rule="evenodd" font-size="9pt" stroke="#000" stroke-width="0.25mm" fill="#000" style="stroke:#000;stroke-width:0.25mm;fill:#000"><path d="M 62.501 67.285 L 62.501 75 A 5.547 5.547 0 0 1 61.447 78.232 A 7.91 7.91 0 0 1 60.548 79.297 A 7.473 7.473 0 0 1 59.028 80.487 A 5.44 5.44 0 0 1 56.251 81.25 L 56.251 70.313 A 123.475 123.475 0 0 1 54.542 71.057 A 101.381 101.381 0 0 1 52.931 71.729 A 82.171 82.171 0 0 1 51.417 72.327 A 65.639 65.639 0 0 1 50.001 72.852 L 50.001 84.375 L 49.22 85.938 Q 48.438 87.5 43.751 87.5 A 22.042 22.042 0 0 1 42.13 87.445 Q 38.917 87.207 38.282 85.938 L 37.501 84.375 L 37.501 72.852 A 65.639 65.639 0 0 1 36.085 72.327 A 82.171 82.171 0 0 1 34.571 71.729 A 101.381 101.381 0 0 1 32.96 71.057 A 123.475 123.475 0 0 1 31.251 70.313 L 31.251 81.25 A 5.547 5.547 0 0 1 28.019 80.197 A 7.91 7.91 0 0 1 26.954 79.297 A 7.473 7.473 0 0 1 25.764 77.777 A 5.44 5.44 0 0 1 25.001 75 L 25.001 67.285 A 73.625 73.625 0 0 1 16.664 62.387 A 80.991 80.991 0 0 1 16.114 62.012 A 48.06 48.06 0 0 1 8.057 55.225 Q 4.493 51.465 2.247 47.071 Q 0.001 42.676 0.001 37.5 A 61.17 61.17 0 0 1 0.468 29.746 Q 1.069 25.049 2.442 21.094 A 27.8 27.8 0 0 1 8.132 11.376 A 26.877 26.877 0 0 1 10.157 9.375 A 29.804 29.804 0 0 1 17.048 4.843 A 40.904 40.904 0 0 1 23.731 2.344 Q 30.553 0.418 39.682 0.075 A 108.331 108.331 0 0 1 43.751 0 A 99.193 99.193 0 0 1 52.059 0.33 Q 56.442 0.699 60.222 1.481 A 51.394 51.394 0 0 1 63.77 2.344 A 40.904 40.904 0 0 1 70.454 4.843 A 29.804 29.804 0 0 1 77.345 9.375 Q 82.618 14.063 85.059 21.094 A 42.075 42.075 0 0 1 86.89 28.711 Q 87.425 32.3 87.491 36.338 A 70.332 70.332 0 0 1 87.501 37.5 A 20.721 20.721 0 0 1 85.255 47.071 Q 83.009 51.465 79.444 55.225 A 48.06 48.06 0 0 1 71.388 62.012 A 74.522 74.522 0 0 1 63.132 66.966 A 68.328 68.328 0 0 1 62.501 67.285 Z M 37.501 37.5 A 12.028 12.028 0 0 0 33.952 28.777 A 14.558 14.558 0 0 0 33.839 28.662 A 12.029 12.029 0 0 0 25.162 25.001 A 14.532 14.532 0 0 0 25.001 25 A 12.028 12.028 0 0 0 16.278 28.549 A 14.558 14.558 0 0 0 16.163 28.662 A 12.029 12.029 0 0 0 12.502 37.339 A 14.532 14.532 0 0 0 12.501 37.5 A 21.311 21.311 0 0 0 12.888 41.669 A 15.349 15.349 0 0 0 14.6 46.338 A 6.972 6.972 0 0 0 19.472 49.77 A 11.772 11.772 0 0 0 21.876 50 A 15.932 15.932 0 0 0 28.161 48.658 A 22.679 22.679 0 0 0 32.276 46.338 A 15.107 15.107 0 0 0 35.031 43.902 A 9.507 9.507 0 0 0 37.501 37.5 Z M 65.626 50 Q 70.802 50 72.901 46.338 Q 75.001 42.676 75.001 37.5 A 12.028 12.028 0 0 0 71.452 28.777 A 14.558 14.558 0 0 0 71.339 28.662 A 12.029 12.029 0 0 0 62.662 25.001 A 14.532 14.532 0 0 0 62.501 25 A 12.028 12.028 0 0 0 53.778 28.549 A 14.558 14.558 0 0 0 53.663 28.662 A 12.029 12.029 0 0 0 50.002 37.339 A 14.532 14.532 0 0 0 50.001 37.5 A 9.575 9.575 0 0 0 52.685 44.143 A 15.433 15.433 0 0 0 55.225 46.338 A 22.599 22.599 0 0 0 59.422 48.692 A 15.901 15.901 0 0 0 65.626 50 Z M 40.04 54.395 L 34.376 60.157 L 38.77 64.551 L 44.532 58.887 L 50.294 64.551 L 54.688 60.157 L 44.532 50 L 40.04 54.395 Z" vector-effect="non-scaling-stroke"/></g></svg>