<?xml version="1.0" encoding="UTF-8" standalone="no"?>
<!-- Uploaded to: SVG Repo, www.svgrepo.com, Generator: SVG Repo Mixer Tools -->

<svg
   fill="#000000"
   height="800px"
   width="800px"
   version="1.1"
   id="Layer_1"
   viewBox="0 0 512 512"
   xml:space="preserve"
   sodipodi:docname="add.svg"
   inkscape:version="1.1.2 (b8e25be833, 2022-02-05)"
   xmlns:inkscape="http://www.inkscape.org/namespaces/inkscape"
   xmlns:sodipodi="http://sodipodi.sourceforge.net/DTD/sodipodi-0.dtd"
   xmlns="http://www.w3.org/2000/svg"
   xmlns:svg="http://www.w3.org/2000/svg"><defs
   id="defs11" /><sodipodi:namedview
   id="namedview9"
   pagecolor="#ffffff"
   bordercolor="#111111"
   borderopacity="1"
   inkscape:pageshadow="0"
   inkscape:pageopacity="0"
   inkscape:pagecheckerboard="1"
   showgrid="false"
   inkscape:zoom="0.514375"
   inkscape:cx="213.85176"
   inkscape:cy="410.20656"
   inkscape:window-width="1920"
   inkscape:window-height="1009"
   inkscape:window-x="-8"
   inkscape:window-y="-8"
   inkscape:window-maximized="1"
   inkscape:current-layer="Layer_1" />
<rect
   style="fill:#ffffff;fill-opacity:1;fill-rule:evenodd;stroke-width:6.21657;stroke-linecap:round;stroke-linejoin:round"
   id="rect1120"
   width="325.52689"
   height="311.45004"
   x="-173.29858"
   y="214.25436"
   transform="rotate(-45)" /><g
   id="g6"
   style="fill:#747f8d;fill-opacity:1"
   transform="rotate(-45,256,256)">
	<g
   id="g4"
   style="fill:#747f8d;fill-opacity:1">
		<path
   d="M 256,0 C 114.615,0 0,114.615 0,256 0,397.385 114.615,512 256,512 397.385,512 512,397.385 512,256 512,114.615 397.385,0 256,0 Z M 327.115,365.904 256,294.789 184.885,365.904 146.096,327.115 217.211,256 146.096,184.885 184.885,146.096 256,217.211 l 71.115,-71.115 38.789,38.789 -71.115,71.115 71.115,71.115 z"
   id="path2"
   style="fill:#747f8d;fill-opacity:1" />
	</g>
</g>
</svg>
