<?xml version="1.0" encoding="UTF-8" standalone="no"?>
<!-- Generator: Adobe Illustrator 26.0.3, SVG Export Plug-In . SVG Version: 6.00 Build 0)  -->

<svg
   version="1.0"
   id="katman_1"
   x="0px"
   y="0px"
   viewBox="0 0 63.999999 64.000001"
   xml:space="preserve"
   sodipodi:docname="bigolive-icon.svg"
   width="64"
   height="64"
   inkscape:version="1.2.2 (732a01da63, 2022-12-09)"
   xmlns:inkscape="http://www.inkscape.org/namespaces/inkscape"
   xmlns:sodipodi="http://sodipodi.sourceforge.net/DTD/sodipodi-0.dtd"
   xmlns="http://www.w3.org/2000/svg"
   xmlns:svg="http://www.w3.org/2000/svg"><defs
   id="defs59" /><sodipodi:namedview
   id="namedview57"
   pagecolor="#ffffff"
   bordercolor="#000000"
   borderopacity="0.25"
   inkscape:showpageshadow="2"
   inkscape:pageopacity="0.0"
   inkscape:pagecheckerboard="0"
   inkscape:deskcolor="#d1d1d1"
   showgrid="false"
   inkscape:zoom="5.6568543"
   inkscape:cx="17.500893"
   inkscape:cy="33.941125"
   inkscape:window-width="1920"
   inkscape:window-height="1009"
   inkscape:window-x="-8"
   inkscape:window-y="-8"
   inkscape:window-maximized="1"
   inkscape:current-layer="katman_1" />
<style
   type="text/css"
   id="style2">
	.st0{fill:#1A1A1A;}
	.st1{fill:#1B1B1B;}
	.st2{fill:#181818;}
	.st3{fill:#353535;}
	.st4{fill:#00FFEF;}
	.st5{fill:#FDFDFD;}
	.st6{fill:#FEFEFE;}
	.st7{fill:#FAFAFA;}
</style>









<path
   class="st2"
   d="m 30.614024,0.8006486 c 1.653567,0.4509729 3.031943,1.253243 4.084213,2.6061617 0.150324,0.1503243 0.150324,0.3006487 0.450972,0.3006487 2.405189,0.3006485 4.810377,1.0522702 6.914918,2.4051888 4.359405,2.5555132 7.215567,6.3136212 8.267837,11.4246472 0,0.300649 0.150325,0.601297 0.150325,0.901946 0,0.601298 0.150323,0.901945 0.601296,1.352918 1.352918,1.803892 1.803892,3.908432 1.352918,6.313621 -0.601296,2.856162 -2.104539,4.960703 -4.209079,6.764594 -0.601298,0.601298 -1.352919,1.052269 -2.104541,1.352919 -0.300649,0.150324 -0.150324,0.150324 0,0.450973 0.601298,0.601296 1.05227,1.352918 1.503243,2.104539 0.150326,0.150326 0.150326,0.300649 0.300649,0.300649 1.052271,0.300649 1.954215,0.901946 2.555514,1.803893 0.150323,0.300647 0.300649,0.300647 0.450972,0.150324 0.901946,-0.751622 1.803892,-1.202596 2.856162,-1.202596 1.954216,0 3.607784,1.503244 4.058755,3.45746 0.30065,1.352919 0.150326,2.705837 -0.300647,4.058757 -1.052271,3.006486 -2.555513,5.712322 -4.810378,8.117512 -0.751621,0.751622 -1.503243,1.352918 -2.405189,1.653567 -1.503243,0.601297 -2.856162,0.150324 -3.758107,-1.202595 -0.150325,-0.300648 -0.300649,-0.300648 -0.450974,0 -1.653568,1.803892 -3.758108,2.856162 -6.012971,3.758108 -0.450974,0.150325 -0.901948,0.300649 -1.202595,0.300649 -0.150324,0 -0.300649,0.150324 -0.450973,0.300648 -0.601297,1.35292 -1.503244,2.705838 -2.705838,3.758108 -0.901945,0.901945 -1.954215,1.653567 -3.307134,1.803893 -1.954216,0.300647 -3.607784,-0.450974 -4.660053,-2.104542 -0.300651,-0.450973 -0.601298,-0.601296 -1.052271,-0.601296 -3.15681,0.150323 -6.163296,-0.751622 -8.869134,-2.705838 C 16.959968,57.824209 16.058023,56.922263 15.456725,56.020317 15.306402,55.869993 15.156077,55.719668 14.855428,55.569344 12.450239,54.667398 10.345699,53.164156 8.6921321,51.209939 7.6398619,49.85702 6.7379162,48.504101 6.4372675,46.70021 c -0.1503243,-0.601297 -0.1503243,-1.352918 0,-1.954216 0.4509729,-1.653567 1.8038916,-2.405188 3.457459,-1.803891 0.6012975,0.150324 1.0522695,0.300647 1.6535675,0 0.300648,-0.150325 0.601297,-0.150325 0.901945,-0.150325 0.150326,0 0.150326,0 0.150326,-0.150324 -0.601299,-1.503243 -0.30065,-2.856163 0.901944,-3.908432 v -0.150325 c -0.450973,-0.300648 -0.901944,-0.450972 -1.352918,-0.901945 -1.954216,-1.803891 -2.4051889,-4.960703 -0.751622,-7.215567 0.150325,-0.300649 0.150325,-0.300649 -0.150324,-0.450973 -1.9542158,-1.05227 -3.0064859,-2.705838 -3.3071344,-4.810377 -0.3006487,-1.954216 0.1503243,-3.908433 1.5032429,-5.411676 0.6012975,-0.75162 1.3529185,-1.352918 2.2548645,-1.653567 0.300648,-0.150323 0.300648,-0.150323 0.150324,-0.450973 -2.8561613,-4.660054 0,-10.8233496 5.411675,-11.5749712 1.202594,-0.1503242 2.555514,0 3.607783,0.450973 0.150325,0.1503243 0.300649,0 0.300649,-0.1503244 0.901946,-3.0064861 3.307134,-5.1461826 6.463945,-5.59715543 1.059087,-0.32501295 2.014306,-0.054424 2.98103,-0.0154924 z"
   id="path22"
   style="stroke-width:1.50325"
   sodipodi:nodetypes="cccccscccccccccscccccccsccccccccccccssccccccccccccccc" />
<path
   class="st4"
   d="m 54.841693,22.94897 c -0.300648,-1.05227 -0.601297,-1.954216 -0.751622,-3.006486 0,-0.150325 -0.150324,-0.300648 -0.450972,-0.450974 -0.450973,-0.150324 -0.901946,-0.450971 -1.352918,-0.601296 -0.150325,0 -0.150325,0 -0.150325,-0.150325 0,-0.150324 0.150325,-0.150324 0.150325,-0.150324 0.450972,-0.150324 0.901945,-0.450973 1.352918,-0.601296 0.300648,-0.150325 0.450972,-0.30065 0.450972,-0.450974 0.300649,-0.901945 0.450974,-1.803892 0.751622,-2.555513 0,-0.150325 0,-0.150325 0.150325,-0.300649 0.150323,0.450974 0.300648,0.901946 0.300648,1.352918 0.150323,0.601299 0.300649,1.202596 0.450973,1.803893 0,0.150325 0.150324,0.300648 0.300649,0.300648 0.450972,0.150324 1.05227,0.450973 1.503243,0.601297 0.150323,0 0.150323,0 0.150323,0.150325 0,0.150325 -0.150323,0.150325 -0.150323,0.150325 -0.450973,0.150324 -0.901947,0.300647 -1.352919,0.450971 -0.300649,0 -0.450973,0.300649 -0.450973,0.601297 -0.30065,0.901947 -0.450973,1.803893 -0.751621,2.555515 0,0.150324 0,0.150324 -0.150325,0.300648 z"
   id="path24"
   style="stroke-width:1.50325" />
<path
   class="st5"
   d="m 33.194993,62.033289 c -1.803892,0.901945 -3.908431,0.300649 -4.960702,-1.503244 -0.450972,-0.751621 -0.601297,-1.503242 -0.901945,-2.254864 -0.150325,-0.450972 -0.300648,-0.751622 -0.751622,-0.601297 -0.300649,0.150325 -0.450974,0.300649 -0.300649,0.901947 0.150324,0.300647 0.150324,0.601296 0.300649,1.05227 0,0.150323 0,0.300648 -0.150325,0.300648 -3.457459,0 -6.463945,-0.901946 -9.169782,-3.156811 -0.450972,-0.450974 -0.901945,-0.901945 -1.202594,-1.352918 -0.300649,-0.601298 -0.751621,-0.751622 -1.35292,-1.05227 -1.653567,-0.751622 -3.307134,-1.653568 -4.660052,-3.006486 -1.3529189,-1.35292 -2.4051891,-3.006486 -2.856162,-4.960703 -0.1503242,-0.601298 -0.1503242,-1.202594 0,-1.803892 0.3006487,-0.901945 1.0522701,-1.202594 1.954216,-1.052269 0.1503242,0 0.3006485,0.150324 0.6012971,0.300649 0.1503244,0 0.1503244,0.150323 0.1503244,0.300649 0,0.601296 0.1503245,1.052269 0.6012975,1.202594 0.901945,0.601297 1.803891,1.052269 2.856161,1.202594 0.150324,0 0.150324,0.150324 0.150324,0.300649 -0.150324,0.450972 -0.450973,0.901945 -0.601297,1.352918 -0.150324,0.300648 0,0.601296 0.300649,0.751622 0.300648,0.150324 0.601298,0 0.601298,-0.450974 0.450971,-1.202594 0.901944,-2.405188 1.653566,-3.457459 0.150325,-0.150323 0.150325,-0.300648 0.150325,-0.450973 -0.300648,-1.653566 -0.300648,-3.457458 -0.150325,-5.111026 0.150325,-1.653568 -0.150323,-3.307134 -0.601297,-4.960701 -0.300648,-1.352919 -1.052269,-2.555514 -1.503243,-3.758108 -0.901946,-2.405188 -1.202594,-4.660054 -1.05227,-7.215568 0.150324,-2.555512 0.601297,-4.960701 1.503244,-7.215566 1.352918,-3.156809 3.307133,-5.712323 6.012972,-7.666539 2.705837,-1.9542159 5.712323,-3.1568104 9.019457,-3.7581075 4.359405,-0.6012974 8.71881,0 12.627242,2.2548645 4.209081,2.5555131 6.764594,6.163296 7.66654,10.973674 0.150324,0.450973 0.150324,0.901947 0.150324,1.352918 0,0.150326 0.150324,0.300649 0.150324,0.450974 1.954216,2.254864 2.254864,4.810377 1.202594,7.516215 -0.901945,2.555513 -2.555512,4.359404 -4.810378,5.712324 -1.803891,1.05227 -3.908431,1.803891 -6.012971,2.104539 0,0 -0.150325,0 -0.150325,0 -0.300649,0 -0.601296,0.300649 -0.450974,0.601299 0,0.300648 0.300651,0.450972 0.601299,0.450972 0.751621,-0.150324 1.503243,-0.150324 2.10454,-0.450972 0.751621,-0.150325 1.503242,-0.450974 2.254864,-0.751622 0.150326,-0.150325 0.300648,0 0.450973,0.150323 2.555513,2.705838 3.908432,5.862649 3.607784,9.620757 -0.150324,2.405188 -0.751622,4.660052 -2.104541,6.614268 -1.352918,2.104541 -3.307134,3.457459 -5.712323,4.50973 -0.601297,0.300647 -1.202596,0.450972 -1.803892,0.601298 0,-0.150326 0,-0.300651 0.150325,-0.450974 0.751622,-2.254865 1.352919,-4.660054 1.352919,-7.065242 0,-1.052271 -0.150326,-1.954216 -0.450974,-3.006486 -0.751621,-2.405189 -2.856162,-3.758107 -5.411674,-3.607783 -1.803892,0.150324 -3.307136,0.901945 -4.50973,2.104539 -0.150324,0.150325 -0.300648,0.150325 -0.601297,0.150325 -1.352918,-0.751622 -2.705838,-0.901945 -4.209081,-0.300649 -0.150324,0 -0.300647,0.150324 -0.450973,0.300649 -0.300648,0.150325 -0.300648,0.450973 -0.150323,0.751622 0.150323,0.300647 0.450972,0.300647 0.75162,0.150323 1.202595,-0.601297 2.405188,-0.450972 3.45746,0 0.300648,0.150324 0.300648,0.150324 0.150324,0.450974 -0.450973,0.601297 -0.901945,1.352918 -1.202596,2.10454 -0.150322,0.300648 -0.150322,0.601296 0.150326,0.751622 0.300648,0.150324 0.601297,0 0.751622,-0.300649 0.601296,-1.352919 1.352918,-2.555513 2.555512,-3.457459 1.202595,-0.901947 2.405189,-1.503243 3.908433,-1.503243 2.104539,0.150325 3.607783,1.202595 4.058756,3.307133 0.300647,1.202596 0.300647,2.405191 0.300647,3.75811 -0.300647,0 -0.150322,-0.150325 -0.150322,-0.30065 0,-0.300648 0,-0.751621 -0.150325,-1.052269 -0.300649,-1.05227 -1.352919,-1.503243 -2.254865,-1.35292 -1.05227,0.150325 -1.803891,0.751621 -2.405188,1.503243 -1.202595,1.352919 -1.803892,3.006486 -2.254865,4.660055 -0.300649,1.503242 -0.450973,3.006486 -0.450973,4.359405 0,0.751621 0.150324,1.503243 0.450973,2.254864 0.300649,0.601297 0.601298,1.052269 1.05227,1.202594 0.150324,-0.300649 0.300648,-0.300649 0.150324,0 z"
   id="path26"
   style="stroke-width:1.50325" />
<path
   class="st4"
   d="m 33.194993,62.033289 c 0,0 0,-0.150325 0,0 -1.05227,-0.450973 -1.352918,-1.05227 -1.653567,-1.954215 -0.300647,-1.052271 -0.300647,-2.104541 -0.300647,-3.156811 0.150322,-1.352919 0.300647,-2.705837 0.601296,-3.908432 0.450973,-1.653567 1.202594,-3.156811 2.405189,-4.359405 0.601297,-0.601298 1.202593,-1.05227 2.10454,-1.202595 1.05227,-0.150324 2.10454,0.300649 2.405189,1.503244 0.150324,0.300648 0.150324,0.601296 0.150324,0.901945 0,0.150324 0,0.300649 0,0.450973 0,1.052271 -0.300649,2.104541 -0.601297,3.156811 -0.450973,1.954216 -1.202594,3.908432 -2.405189,5.561999 -0.751622,1.202594 -1.653567,2.104541 -2.856162,2.856161 0.300648,0 0.300648,0.150325 0.150324,0.150325 z"
   id="path28"
   style="stroke-width:1.50325" />
<path
   class="st6"
   d="m 49.88099,53.615128 c -1.503241,0.601298 -2.405188,-0.300649 -2.85616,-1.202594 0,-0.150326 0,-0.300648 0,-0.300648 1.803891,-2.705838 2.555513,-5.562 2.405188,-8.869136 0,-0.601296 -0.150324,-1.202594 -0.150324,-1.80389 0,-0.150325 0,-0.300649 0.150324,-0.150325 0.300649,0 0.450972,-0.150324 0.601297,-0.300649 0.601297,-0.751621 1.202595,-1.352918 1.954217,-1.803892 2.254864,-1.352919 4.660052,0.450974 4.660052,2.705838 0,0.450974 0,0.751622 -0.300648,1.052271 -0.601297,0.450972 -0.751621,1.202595 -1.202595,1.803891 -0.601296,1.052269 -1.05227,2.254863 -1.653566,3.457459 -0.751622,1.352918 -1.503243,2.555514 -2.40519,3.758108 -0.300647,0.450973 -0.751621,1.202595 -1.202595,1.653567 z"
   id="path30"
   style="stroke-width:1.50325" />
<path
   class="st4"
   d="M 20.267103,7.0145938 C 16.65932,9.4197825 14.103807,12.576593 12.750888,16.63535 11.247645,15.28243 11.397969,11.374 13.051536,9.2694582 14.855428,6.5636208 18.162562,6.1126478 20.267103,7.0145938 Z"
   id="path32"
   style="stroke-width:1.50325" />
<path
   class="st4"
   d="M 22.371643,5.661675 C 22.672291,4.0081075 24.476183,1.9035673 27.031698,1.4525944 29.58721,0.85129722 32.142723,2.0538916 33.345317,3.5571346 29.58721,3.256486 25.829103,4.0081075 22.371643,5.661675 Z"
   id="path34"
   style="stroke-width:1.50325" />
<path
   class="st4"
   d="m 8.8424564,23.700591 c 0.1503243,-2.10454 0.9019457,-3.758107 2.8561616,-4.960702 0,0 0.150324,0 0.150324,0 0.150324,0 0.150324,-0.150324 0.300649,0 0.150324,0 0,0.150325 0,0.30065 -0.601297,2.705837 -0.751622,5.411675 -0.450973,8.267835 0,0.450973 0.150324,0.901947 0.300648,1.35292 0,0.150323 0.150325,0.150323 0,0.300648 0,0 -0.150324,0 -0.150324,0 C 10.496024,28.210321 9.7444021,27.007726 9.2934292,25.654808 8.9927807,24.752861 8.8424564,24.151565 8.8424564,23.700591 Z"
   id="path36"
   style="stroke-width:1.50325" />
<path
   class="st4"
   d="m 49.88099,53.615128 c 0,-0.300649 0.150325,-0.450972 0.30065,-0.751622 1.653567,-2.104539 3.006486,-4.359405 4.058756,-6.764593 0.450973,-0.901946 0.901945,-1.803893 1.352919,-2.555513 0.300648,-0.450973 0.450973,-0.901946 0.901945,-1.202594 0.300649,-0.150326 0.150324,-0.450974 0.150324,-0.751622 0.150325,0.601296 0,1.202594 -0.150324,1.803891 -0.450972,2.254864 -1.352919,4.058756 -2.555513,6.012973 -0.901946,1.352919 -1.803891,2.555513 -3.006486,3.457458 -0.300649,0.450973 -0.751621,0.601298 -1.052271,0.751622 z"
   id="path38"
   style="stroke-width:1.50325" />
<path
   class="st4"
   d="m 11.247645,33.020698 c 0,-0.751621 0.300649,-1.653567 0.751621,-2.405188 0.150325,-0.30065 0.150325,-0.30065 0.300649,0 0.901946,1.803892 1.653568,3.607783 2.10454,5.561999 0,0.300648 0.150325,0.450973 0.150325,0.751622 0,0.300648 0,0.300648 -0.30065,0.300648 -0.751621,-0.300648 -1.503242,-0.601297 -1.954215,-1.352918 -0.751621,-0.751622 -1.05227,-1.803893 -1.05227,-2.856163 z"
   id="path40"
   style="stroke-width:1.50325" />
<path
   class="st4"
   d="m 14.55478,40.536913 c 0,0.601298 0,1.352919 0,1.954217 0,0.150324 0,0.150324 0,0.300648 -0.150325,0 -0.150325,0 -0.30065,-0.150324 -1.052269,-0.601298 -1.352918,-2.254865 -0.751621,-3.307135 0.150325,-0.300648 0.450974,-0.601297 0.751621,-0.751622 0.150325,-0.150324 0.30065,0 0.30065,0.150325 0,0.601297 0.150323,1.202595 0,1.803891 0,0 0,0 0,0 z"
   id="path42"
   style="stroke-width:1.50325" />
<path
   class="st4"
   d="m 12.299915,43.24275 c 0.901946,0 1.503244,0.450974 1.653568,1.352919 0.150324,0.601298 -0.150324,0.901947 -0.751622,0.751623 -0.601296,-0.30065 -1.352919,-0.450973 -1.954216,-0.901947 -0.450973,-0.300647 -0.450973,-0.601296 0,-0.751621 0.450973,-0.300649 0.751621,-0.450974 1.05227,-0.450974 z"
   id="path44"
   style="stroke-width:1.50325" />
<path
   class="st7"
   d="m 49.12937,40.536913 c -0.150324,-0.751622 -0.450974,-1.503242 -0.751621,-2.254864 0.450972,0.150324 0.751621,0.450973 0.901945,0.751622 0.450973,0.601297 0.450973,0.75162 -0.150324,1.503242 z"
   id="path46"
   style="stroke-width:1.50325" />
<path
   class="st2"
   d="m 29.887859,41.739508 c -0.601297,0 -1.202595,-0.150324 -1.803891,-0.300648 -0.150326,-0.150325 -0.300649,0 -0.6013,0 -0.45097,0.300648 -1.052269,0.601296 -1.653565,0.75162 -0.450973,0.150326 -0.601298,0 -0.751623,-0.450972 0,-0.300648 0.150325,-0.601297 0.450974,-0.601297 0.601296,-0.150325 1.202594,-0.450973 1.653567,-0.751622 0.300647,-0.300648 0.601298,-0.300648 0.901947,-0.150324 0.601296,0.300648 1.352918,0.450973 1.954215,0.300648 1.352918,-0.150324 2.254865,-1.202594 2.10454,-2.405188 0,-0.601297 0.150325,-0.751622 0.751622,-0.751622 0.450972,0 1.052269,0 1.503242,-0.300649 0.30065,-0.150323 0.450974,-0.300649 0.450974,-0.601297 0,-0.300648 -0.300649,-0.450973 -0.601297,-0.450973 -0.30065,-0.150323 -0.601297,-0.150323 -0.901947,-0.150323 -0.75162,0 -1.653567,0 -2.405189,0 -0.450972,0 -0.751621,-0.30065 -0.601297,-0.751622 0,-0.300649 0.150325,-0.601297 0,-0.901946 0,-0.150325 -0.150324,-0.450973 -0.300648,-0.450973 -0.300649,0 -0.450973,0 -0.601297,0.150323 -0.300649,0.30065 -0.450974,0.751623 -0.601298,1.052271 -0.150324,0.300648 -0.150324,0.450973 -0.450972,0.450973 -0.450974,0.150324 -0.601297,0.450974 -0.751622,0.901946 -0.150326,0.300649 -0.300648,0.450972 -0.601296,0.450972 -0.901948,0.150326 -1.653568,0.150326 -2.555515,0 -0.150323,0 -0.150323,0 -0.300648,-0.150323 -0.450974,-0.300649 -0.901945,-0.751621 -1.202595,-1.202595 -0.300649,-0.300648 -0.150323,-0.601297 0,-0.751621 0.30065,-0.150324 0.601298,-0.150324 0.751621,0.150324 0.450974,0.751621 1.202595,1.052271 2.104542,0.901946 0,0 0.150324,0 0.150324,0 0.450972,0 0.901945,0 1.052271,-0.601297 0.150323,-0.300649 0.300648,-0.450973 0.45097,-0.601297 0.300651,-0.150325 0.450974,-0.450974 0.6013,-0.751622 0.150323,-0.450974 0.450972,-0.751622 0.75162,-1.052271 0.901946,-0.601296 1.954217,-0.300647 2.254866,0.751623 0.150325,0.300648 0.150325,0.601296 0.150325,0.751621 0,0.300649 0.150322,0.300649 0.300647,0.300649 0.601297,0 1.202594,0 1.954217,0 0.450971,0 0.901944,0.150324 1.352918,0.300648 1.05227,0.601297 1.05227,1.803892 0.150325,2.555513 -0.450974,0.450972 -1.052272,0.450972 -1.653569,0.601297 -0.300648,0 -0.300648,0.150325 -0.300648,0.300649 0,2.254864 -1.352919,3.457459 -3.15681,3.457459 z"
   id="path48"
   style="stroke-width:1.50325" />
<path
   class="st2"
   d="m 37.404074,29.863888 c -1.803892,0 -3.307135,-0.150324 -4.810377,-0.601297 -0.751622,-0.300649 -1.503243,-0.601297 -2.104541,-1.05227 -0.300649,-0.300649 -0.450973,-0.450974 -0.150325,-0.751622 0.150325,-0.300648 0.450974,-0.300648 0.751623,0 1.202594,0.901947 2.705837,1.202595 4.20908,1.352918 3.457459,0.300649 6.614269,-0.300648 9.771079,-1.803891 1.05227,-0.450973 1.954217,-1.202594 2.705839,-2.10454 0.450972,-0.450972 0.75162,-1.05227 0.901944,-1.653567 0,0 0,-0.150325 0,-0.150325 0.150325,-0.300648 0.30065,-0.450972 0.601298,-0.300648 0.300649,0.150324 0.450973,0.300648 0.300649,0.601297 -0.300649,1.202593 -0.901947,2.10454 -1.803891,2.856162 -1.202595,1.052269 -2.705839,1.803891 -4.209082,2.405189 -2.10454,0.751621 -4.209081,1.202594 -6.163296,1.202594 z"
   id="path50"
   style="stroke-width:1.50325" />
<path
   class="st2"
   d="m 31.842075,22.94897 c 0,-1.202594 0.901945,-2.254865 2.104539,-2.254865 1.202595,0 2.104542,1.052271 2.104542,2.254865 0,1.202595 -0.901947,2.254865 -2.104542,2.254865 -1.202594,0 -2.104539,-1.05227 -2.104539,-2.254865 z"
   id="path52"
   style="stroke-width:1.50325" />
<path
   class="st2"
   d="m 47.475802,20.694105 c 0,0.450973 -0.150324,0.901946 -0.450972,1.352919 -0.450973,0.751622 -1.352919,0.751622 -2.104541,0.300648 -0.901946,-0.751621 -1.202595,-2.254865 -0.450974,-3.156809 0.601298,-0.751622 1.503244,-0.901947 2.254866,-0.150324 0.601297,0.450971 0.751621,1.052268 0.751621,1.653566 z"
   id="path54"
   style="stroke-width:1.50325" />
</svg>
