<?xml version="1.0" encoding="UTF-8" standalone="no"?>
<svg
   version="1.1"
   viewBox="0 0 64.000002 64.000002"
   xml:space="preserve"
   id="svg29"
   sodipodi:docname="nimotv-icon.svg"
   inkscape:version="1.2.2 (732a01da63, 2022-12-09)"
   width="64"
   height="64"
   xmlns:inkscape="http://www.inkscape.org/namespaces/inkscape"
   xmlns:sodipodi="http://sodipodi.sourceforge.net/DTD/sodipodi-0.dtd"
   xmlns="http://www.w3.org/2000/svg"
   xmlns:svg="http://www.w3.org/2000/svg"
   xmlns:rdf="http://www.w3.org/1999/02/22-rdf-syntax-ns#"
   xmlns:cc="http://creativecommons.org/ns#"
   xmlns:dc="http://purl.org/dc/elements/1.1/"><sodipodi:namedview
     id="namedview31"
     pagecolor="#ffffff"
     bordercolor="#000000"
     borderopacity="0.25"
     inkscape:showpageshadow="2"
     inkscape:pageopacity="0.0"
     inkscape:pagecheckerboard="0"
     inkscape:deskcolor="#d1d1d1"
     showgrid="false"
     inkscape:zoom="8"
     inkscape:cx="20.125"
     inkscape:cy="30.875"
     inkscape:window-width="1920"
     inkscape:window-height="1009"
     inkscape:window-x="-8"
     inkscape:window-y="-8"
     inkscape:window-maximized="1"
     inkscape:current-layer="svg29" /><metadata
     id="metadata2"><rdf:RDF><cc:Work
         rdf:about=""><dc:format>image/svg+xml</dc:format><dc:type
           rdf:resource="http://purl.org/dc/dcmitype/StillImage" /></cc:Work></rdf:RDF></metadata><defs
     id="defs7"><clipPath
       id="a"><path
         d="M 0,500 H 500 V 0 H 0 Z"
         id="path4" /></clipPath></defs><g
     transform="matrix(0.13783135,0,0,-0.13783135,-2.4289182,65.760689)"
     id="g27"><g
       clip-path="url(#a)"
       id="g25"><g
         transform="translate(481.11,128.24)"
         id="g11"><path
           d="m -77.327076,-93.816313 c -98.714674,1.557921 -204.864554,1.045546 -290.097924,1.708313 -61.524,0.509 -95.86354,53.507429 -95.22554,94.6974295 0.902,58.2769995 0.0525,116.5745705 0.0525,174.8645705 -10e-4,44.893 35.038,85.834 79.535,92.574 17.816,2.7 35.858,2.325 53.809,2.527 15.113,0.17 29.168,3.178 42.966,9.619 37.704,17.598 75.745,34.474 113.65,51.642 9.07907,2.7747 12.63874,2.26726 17.25982,-1.49648 3.346,-3.418 4.42118,-9.86352 3.90218,-13.84652 -1.458,-11.187 -3.446,-22.307 -4.755,-33.51 -1.048,-8.98 2.167,-12.195 11.098,-12.372 17.58,-0.348 35.161,-0.655 52.737,-1.139 47.996085,-9.09122 92.3889365,-32.57372 92.36277869,-91.3555 C 0.04675766,102.61419 0.07158113,53.442193 -0.01277348,3.8018475 -0.08090732,-36.293024 -21.658527,-94.521144 -77.327076,-93.816313 Z"
           fill="#622df6"
           id="path9"
           sodipodi:nodetypes="ccccccccccccccsc" /></g><g
         transform="translate(173.52,295.79)"
         id="g15"><path
           d="M 0,0 C 29.858,9.997 42.855,-40.389 11.463,-45.521 -17.528,-53.918 -29.659,-5.999 0,0"
           fill="#ffffff"
           id="path13" /></g><g
         transform="translate(312.55,289.26)"
         id="g19"><path
           d="M 0,0 C 9.198,5.199 21.461,18.262 30.525,5.398 33.591,-6.532 20.861,-10.664 13.53,-16.729 20.395,-22.994 36.536838,-30.387681 29.992,-40.122 17.105112,-54.413115 -2.7011058,-33.29949 -12.996,-23.593 -23.26,-13.463 -6.864,-5.398 0,0"
           fill="#ffffff"
           id="path17"
           sodipodi:nodetypes="cccccc" /></g><g
         transform="translate(227.31,240.94)"
         id="g23"><path
           d="m 0,0 c 7.864,7.998 20.661,7.998 29.325,1.267 19.928,-11.531 40.989,-21.461 59.717,-34.858 10.864,-8.263 9.13,-26.325 -2.733,-32.79 -20.261,-12.997 -41.455,-24.66 -62.849,-35.657 -12.13,-6.665 -30.658,3.865 -30.191,18.061 -0.467,25.327 -0.9869295,71.002015 0.4564794,75.9339865 C -5.0476592,-4.8451729 -1.9574218,-1.7532891 0,0"
           fill="#ffd700"
           id="path21"
           sodipodi:nodetypes="cccccccc" /></g></g></g></svg>
