<?xml version="1.0" encoding="UTF-8"?>
<svg version="1.1" viewBox="0 0 666.67 666.67" xml:space="preserve" xmlns="http://www.w3.org/2000/svg" xmlns:cc="http://creativecommons.org/ns#" xmlns:dc="http://purl.org/dc/elements/1.1/" xmlns:rdf="http://www.w3.org/1999/02/22-rdf-syntax-ns#"><metadata><rdf:RDF><cc:Work rdf:about=""><dc:format>image/svg+xml</dc:format><dc:type rdf:resource="http://purl.org/dc/dcmitype/StillImage"/></cc:Work></rdf:RDF></metadata><defs><clipPath id="a"><path d="m0 500h500v-500h-500z"/></clipPath></defs><g transform="matrix(1.4389 0 0 -1.4389 -25.748 692.5)"><g clip-path="url(#a)"><g transform="translate(481.11,128.24)"><path d="m0 0c-1.285-43.265-34.655-81.985-77.718-90.298-7.129-1.376-14.255-2.055-21.527-2.049-89.393 0.074-178.79-0.504-268.18 0.239-61.524 0.509-96.04 53.502-95.402 94.692 0.902 58.277 0.229 116.58 0.229 174.87-1e-3 44.893 35.038 85.834 79.535 92.574 17.816 2.7 35.858 2.325 53.809 2.527 15.113 0.17 29.168 3.178 42.966 9.619 37.704 17.598 75.745 34.474 113.65 51.642 5.172 2.342 10.324 3.488 15.465-0.062 1.191-1.255 2.366-2.525 3.706-3.628 3.346-3.418 2.51-7.67 1.991-11.653-1.458-11.187-3.446-22.307-4.755-33.51-1.048-8.98 2.167-12.195 11.098-12.372 17.58-0.348 35.161-0.655 52.737-1.139 44.99-1.238 84.829-36.748 91.316-81.337 0.504-3.466 0.721-6.974 1.07-10.462-0.993-1.629-0.558-3.433-0.559-5.155-0.024-56.449-0.024-112.9 1e-3 -169.35 0-1.721-0.442-3.527 0.566-5.152" fill="#622df6"/></g><g transform="translate(173.52,295.79)"><path d="M 0,0 C 29.858,9.997 42.855,-40.389 11.463,-45.521 -17.528,-53.918 -29.659,-5.999 0,0" fill="#fff"/></g><g transform="translate(312.55,289.26)"><path d="m0 0c9.198 5.199 21.461 18.262 30.525 5.398 3.066-11.93-9.664-16.062-16.995-22.127 6.865-6.265 21.594-11.263 16.462-23.393-15.129-12.264-30.391 8.864-42.988 16.529-10.264 10.13 6.132 18.195 12.996 23.593" fill="#fff"/></g><g transform="translate(227.31,240.94)"><path d="m0 0c7.864 7.998 20.661 7.998 29.325 1.267 19.928-11.531 40.989-21.461 59.717-34.858 10.864-8.263 9.13-26.325-2.733-32.79-20.261-12.997-41.455-24.66-62.849-35.657-12.13-6.665-30.658 3.865-30.191 18.061-0.467 25.327-1.667 50.853 0.732 76.113 1.534 2 4.533 5.865 5.999 7.864" fill="#ffd700"/></g></g></g></svg>
