<?xml version="1.0" encoding="UTF-8" standalone="no"?>
<!-- Uploaded to: SVG Repo, www.svgrepo.com, Generator: SVG Repo Mixer Tools -->

<svg
   height="800px"
   width="800px"
   version="1.1"
   id="_x32_"
   viewBox="0 0 512 512"
   xml:space="preserve"
   sodipodi:docname="sleep-svgrepo-com.svg"
   inkscape:version="1.1.2 (b8e25be833, 2022-02-05)"
   xmlns:inkscape="http://www.inkscape.org/namespaces/inkscape"
   xmlns:sodipodi="http://sodipodi.sourceforge.net/DTD/sodipodi-0.dtd"
   xmlns="http://www.w3.org/2000/svg"
   xmlns:svg="http://www.w3.org/2000/svg"><defs
   id="defs15" /><sodipodi:namedview
   id="namedview13"
   pagecolor="#ffffff"
   bordercolor="#111111"
   borderopacity="1"
   inkscape:pageshadow="0"
   inkscape:pageopacity="0"
   inkscape:pagecheckerboard="1"
   showgrid="false"
   inkscape:zoom="1.02875"
   inkscape:cx="400.48603"
   inkscape:cy="400.48603"
   inkscape:window-width="1920"
   inkscape:window-height="1009"
   inkscape:window-x="-8"
   inkscape:window-y="-8"
   inkscape:window-maximized="1"
   inkscape:current-layer="_x32_" />
<style
   type="text/css"
   id="style2">
	.st0{fill:#000000;}
</style>
<g
   id="g10"
   style="fill:#3276c3;fill-opacity:1">
	<polygon
   class="st0"
   points="0.525,412.7 60.889,412.7 0,489.258 0,502.514 116.931,502.514 116.931,467.749 59.208,467.749    118.25,393.521 118.25,377.934 0.525,377.934  "
   id="polygon4"
   style="fill:#3276c3;fill-opacity:1" />
	<polygon
   class="st0"
   points="150.434,244.368 225.888,244.368 149.775,340.068 149.775,356.629 295.938,356.629 295.938,313.175    223.79,313.175 297.591,220.39 297.591,200.914 150.434,200.914  "
   id="polygon6"
   style="fill:#3276c3;fill-opacity:1" />
	<polygon
   class="st0"
   points="512,9.486 335.41,9.486 335.41,61.629 425.954,61.629 334.617,176.471 334.617,196.337    510.013,196.337 510.013,144.194 423.438,144.194 512,32.851  "
   id="polygon8"
   style="fill:#3276c3;fill-opacity:1" />
</g>
</svg>
