<?xml version="1.0" encoding="UTF-8" standalone="no"?>
<svg
   viewBox="0 0 48 48"
   width="48px"
   height="48px"
   version="1.1"
   id="svg15"
   sodipodi:docname="telegram-icon.svg"
   inkscape:version="1.1.2 (b8e25be833, 2022-02-05)"
   xmlns:inkscape="http://www.inkscape.org/namespaces/inkscape"
   xmlns:sodipodi="http://sodipodi.sourceforge.net/DTD/sodipodi-0.dtd"
   xmlns="http://www.w3.org/2000/svg"
   xmlns:svg="http://www.w3.org/2000/svg">
  <defs
     id="defs19" />
  <sodipodi:namedview
     id="namedview17"
     pagecolor="#ffffff"
     bordercolor="#111111"
     borderopacity="1"
     inkscape:pageshadow="0"
     inkscape:pageopacity="0"
     inkscape:pagecheckerboard="1"
     showgrid="false"
     inkscape:zoom="17.145833"
     inkscape:cx="18.196841"
     inkscape:cy="25.662211"
     inkscape:window-width="1920"
     inkscape:window-height="1009"
     inkscape:window-x="-8"
     inkscape:window-y="-8"
     inkscape:window-maximized="1"
     inkscape:current-layer="svg15" />
  <linearGradient
     id="BiF7D16UlC0RZ_VqXJHnXa"
     x1="9.858"
     x2="38.142"
     y1="9.858"
     y2="38.142"
     gradientUnits="userSpaceOnUse"
     gradientTransform="matrix(1.1662212,0,0,1.1662212,-3.9309843,-4.0476306)">
    <stop
       offset="0"
       stop-color="#33bef0"
       id="stop2" />
    <stop
       offset="1"
       stop-color="#0a85d9"
       id="stop4" />
  </linearGradient>
  <path
     fill="url(#BiF7D16UlC0RZ_VqXJHnXa)"
     d="m 47.382746,23.941676 c 0,12.880913 -10.44351,23.324424 -23.324422,23.324424 -12.880913,0 -23.32442363,-10.443511 -23.32442363,-23.324424 0,-12.880912 10.44351063,-23.32442206 23.32442363,-23.32442206 12.880912,0 23.324422,10.44351006 23.324422,23.32442206 z"
     id="path7"
     style="fill:url(#BiF7D16UlC0RZ_VqXJHnXa);stroke-width:1.16622" />
  <path
     d="m 7.8700076,23.318914 c 9.5105334,-4.309186 20.6805984,-8.984568 22.4007754,-9.660975 3.79255,-1.491597 5.446253,0.03266 5.187352,2.464225 -0.318378,2.979695 -1.827468,11.65055 -2.75578,17.863009 -0.543459,3.635111 -2.512041,4.748853 -4.733692,3.338892 -1.685189,-1.069425 -7.478976,-4.863142 -9.003227,-6.15998 -1.039104,-0.883996 -1.763327,-1.875284 -1.026275,-2.885231 0.215751,-0.295055 0.767372,-0.889827 1.07409,-1.186048 1.538245,-1.49043 1.330658,-1.811142 -0.529465,-0.480483 -0.221581,0.158606 -1.506758,1.090418 -2.035056,1.442616 -1.294506,0.863003 -2.485217,0.909652 -4.503946,0.223915 C 10.293415,27.717901 8.7073544,27.285232 7.7067366,26.852564 6.3247645,26.254294 5.7953,24.25889 7.8700076,23.318914 Z"
     opacity="0.05"
     id="path9"
     style="stroke-width:1.16622" />
  <path
     d="m 8.7061881,23.464692 c 8.8306259,-3.947659 19.6904769,-8.47143 21.2788709,-9.111685 3.806546,-1.53708 5.207178,-0.625094 4.797834,2.34527 -0.380188,2.749949 -1.729506,11.258699 -2.675311,16.962687 -0.557455,3.357551 -2.185499,4.096935 -4.305689,2.725458 -1.328325,-0.856005 -6.674283,-4.377994 -7.971121,-5.403101 -1.00295,-0.791866 -2.042054,-1.706182 -0.828018,-3.029843 0.405846,-0.441998 2.647323,-2.605338 4.323183,-4.214723 0.971462,-0.934145 0.625094,-1.394801 -0.546958,-0.592441 -2.149346,1.472937 -5.665502,3.804213 -6.292929,4.227553 -1.195377,0.804691 -2.318449,0.998284 -4.273035,0.383685 C 10.672437,27.272405 9.1843388,26.802417 8.4088017,26.500366 6.6757971,25.828622 6.6524727,24.382508 8.7061881,23.464692 Z"
     opacity="0.07"
     id="path11"
     style="stroke-width:1.16622" />
  <path
     fill="#ffffff"
     d="m 9.5423687,23.611636 c 8.1518853,-3.58613 18.7003553,-7.958292 20.1569663,-8.563562 3.819374,-1.583728 4.991426,-1.280511 4.407149,2.227483 -0.419839,2.521369 -1.630376,10.868015 -2.596007,16.063529 -0.572615,3.081158 -1.857791,3.446183 -3.877685,2.113194 -0.971463,-0.641422 -5.875424,-3.884684 -6.940183,-4.646225 -0.971463,-0.693902 -2.31145,-1.528916 -0.630926,-3.173288 0.598272,-0.585444 4.517941,-4.329013 7.572275,-7.242234 0.400013,-0.38252 -0.102633,-1.011114 -0.564452,-0.704397 -4.116761,2.730123 -9.824247,6.519177 -10.550802,7.012487 -1.097414,0.745217 -2.151679,1.086918 -4.043289,0.543459 C 11.045628,26.831573 9.649661,26.34176 9.1062019,26.155164 7.012835,25.436772 7.5096453,24.506128 9.5423687,23.611636 Z"
     id="path13"
     style="stroke-width:1.16622" />
</svg>
